<?xml version="1.0" encoding="UTF-8"?>
<svg width="32px" height="15px" viewBox="0 0 32 15" version="1.1" xmlns="http://www.w3.org/2000/svg" xmlns:xlink="http://www.w3.org/1999/xlink">
    <!-- Generator: Sketch 61 (89581) - https://sketch.com -->
    <title>ATS</title>
    <desc>Created with Sketch.</desc>
    <g id="Page-1" stroke="none" stroke-width="1" fill="none" fill-rule="evenodd">
        <path d="M2.07,14 L3.42,10.436 L9.072,10.436 L10.458,14 L12.366,14 L7.29,1.238 L5.256,1.238 L0.18,14 L2.07,14 Z M8.442,8.798 L4.05,8.798 L6.228,3.074 L8.442,8.798 Z M17.586,14 L17.586,2.876 L21.852,2.876 L21.852,1.238 L11.556,1.238 L11.556,2.876 L15.822,2.876 L15.822,14 L17.586,14 Z M27.486,14.27 C30.204,14.27 31.896,12.47 31.896,10.49 C31.896,8.708 30.708,7.376 28.584,6.908 L26.676,6.494 C25.596,6.26 25.038,5.558 25.038,4.64 C25.038,3.452 26.064,2.516 27.504,2.516 C29.286,2.516 30.06,3.776 30.204,4.694 L31.788,4.136 C31.5,2.75 30.348,0.968 27.468,0.968 C25.11,0.968 23.256,2.768 23.256,4.766 C23.256,6.674 24.552,7.862 26.37,8.258 L28.188,8.654 C29.466,8.924 30.096,9.716 30.096,10.634 C30.096,11.75 29.232,12.668 27.468,12.668 C25.542,12.668 24.534,11.354 24.408,9.932 L22.716,10.472 C22.95,12.29 24.408,14.27 27.486,14.27 Z" id="ATS" fill="#326DE6" fill-rule="nonzero"></path>
    </g>
</svg>