<?xml version="1.0" encoding="UTF-8"?>
<svg width="125px" height="18px" viewBox="0 0 125 18" version="1.1" xmlns="http://www.w3.org/2000/svg" xmlns:xlink="http://www.w3.org/1999/xlink">
    <!-- Generator: Sketch 61 (89581) - https://sketch.com -->
    <title>ATSproduction</title>
    <desc>Created with Sketch.</desc>
    <g id="Page-1" stroke="none" stroke-width="1" fill="none" fill-rule="evenodd">
        <path d="M2.07,14 L3.42,10.436 L9.072,10.436 L10.458,14 L12.366,14 L7.29,1.238 L5.256,1.238 L0.18,14 L2.07,14 Z M8.442,8.798 L4.05,8.798 L6.228,3.074 L8.442,8.798 Z M17.586,14 L17.586,2.876 L21.852,2.876 L21.852,1.238 L11.556,1.238 L11.556,2.876 L15.822,2.876 L15.822,14 L17.586,14 Z M27.486,14.27 C30.204,14.27 31.896,12.47 31.896,10.49 C31.896,8.708 30.708,7.376 28.584,6.908 L26.676,6.494 C25.596,6.26 25.038,5.558 25.038,4.64 C25.038,3.452 26.064,2.516 27.504,2.516 C29.286,2.516 30.06,3.776 30.204,4.694 L31.788,4.136 C31.5,2.75 30.348,0.968 27.468,0.968 C25.11,0.968 23.256,2.768 23.256,4.766 C23.256,6.674 24.552,7.862 26.37,8.258 L28.188,8.654 C29.466,8.924 30.096,9.716 30.096,10.634 C30.096,11.75 29.232,12.668 27.468,12.668 C25.542,12.668 24.534,11.354 24.408,9.932 L22.716,10.472 C22.95,12.29 24.408,14.27 27.486,14.27 Z M40.32,17.42 L40.32,12.83 C40.788,13.604 41.796,14.234 43.128,14.234 C45.666,14.234 47.16,12.236 47.16,9.662 C47.16,7.142 45.774,5.144 43.182,5.144 C41.778,5.144 40.752,5.828 40.284,6.692 L40.284,5.342 L38.646,5.342 L38.646,17.42 L40.32,17.42 Z M42.876,12.722 C41.328,12.722 40.302,11.444 40.302,9.662 C40.302,7.934 41.328,6.638 42.876,6.638 C44.46,6.638 45.432,7.934 45.432,9.662 C45.432,11.444 44.442,12.722 42.876,12.722 Z M51.012,14 L51.012,9.662 C51.012,7.754 51.966,6.998 53.388,6.998 C53.622,6.998 53.874,7.016 54.126,7.052 L54.126,5.252 C54.036,5.234 53.802,5.198 53.568,5.198 C52.686,5.198 51.606,5.522 50.976,6.854 L50.976,5.342 L49.32,5.342 L49.32,14 L51.012,14 Z M59.544,14.27 C62.136,14.27 63.972,12.308 63.972,9.662 C63.972,7.034 62.136,5.072 59.544,5.072 C56.952,5.072 55.116,7.034 55.116,9.662 C55.116,12.308 56.952,14.27 59.544,14.27 Z M59.544,12.758 C58.104,12.758 56.844,11.678 56.844,9.662 C56.844,7.664 58.104,6.584 59.544,6.584 C60.984,6.584 62.244,7.664 62.244,9.662 C62.244,11.678 60.984,12.758 59.544,12.758 Z M69.516,14.234 C70.866,14.234 71.784,13.514 72.198,12.686 L72.198,12.83 C72.198,13.352 72.252,13.802 72.288,14 L73.926,14 C73.908,13.856 73.836,13.226 73.836,12.398 L73.836,0.968 L72.162,0.968 L72.162,6.566 C71.874,5.864 71.046,5.108 69.516,5.108 C67.068,5.108 65.412,7.196 65.412,9.644 C65.412,12.218 66.978,14.234 69.516,14.234 Z M69.678,12.74 C68.058,12.74 67.14,11.426 67.14,9.644 C67.14,7.862 68.148,6.602 69.696,6.602 C71.244,6.602 72.18,7.826 72.18,9.608 C72.18,11.39 71.226,12.74 69.678,12.74 Z M79.776,14.27 C80.784,14.27 81.864,13.856 82.332,12.956 C82.332,13.316 82.368,13.802 82.404,14 L84.024,14 C83.988,13.694 83.934,13.082 83.934,12.398 L83.934,5.342 L82.242,5.342 L82.242,10.562 C82.242,11.876 81.558,12.776 80.19,12.776 C78.768,12.776 78.228,11.732 78.228,10.544 L78.228,5.342 L76.536,5.342 L76.536,10.796 C76.536,12.758 77.76,14.27 79.776,14.27 Z M90.378,14.27 C92.628,14.27 93.87,12.812 94.284,11.57 L92.79,10.922 C92.592,11.606 91.998,12.704 90.378,12.704 C88.974,12.704 87.732,11.642 87.732,9.662 C87.732,7.646 88.992,6.638 90.36,6.638 C91.836,6.638 92.466,7.628 92.682,8.474 L94.212,7.826 C93.852,6.512 92.664,5.072 90.36,5.072 C87.894,5.072 86.004,6.962 86.004,9.662 C86.004,12.29 87.858,14.27 90.378,14.27 Z M99.252,14.09 C99.828,14.09 100.26,13.982 100.404,13.928 L100.404,12.488 C100.26,12.524 99.954,12.56 99.738,12.56 C98.856,12.56 98.532,12.164 98.532,11.372 L98.532,6.872 L100.404,6.872 L100.404,5.342 L98.532,5.342 L98.532,2.606 L96.984,2.606 L96.984,4.01 C96.984,4.766 96.588,5.342 95.652,5.342 L95.184,5.342 L95.184,6.872 L96.84,6.872 L96.84,11.624 C96.84,13.19 97.776,14.09 99.252,14.09 Z M103.482,3.272 C104.166,3.272 104.706,2.732 104.706,2.066 C104.706,1.382 104.166,0.842 103.482,0.842 C102.816,0.842 102.276,1.382 102.276,2.066 C102.276,2.732 102.816,3.272 103.482,3.272 Z M104.328,14 L104.328,5.342 L102.654,5.342 L102.654,14 L104.328,14 Z M110.916,14.27 C113.508,14.27 115.344,12.308 115.344,9.662 C115.344,7.034 113.508,5.072 110.916,5.072 C108.324,5.072 106.488,7.034 106.488,9.662 C106.488,12.308 108.324,14.27 110.916,14.27 Z M110.916,12.758 C109.476,12.758 108.216,11.678 108.216,9.662 C108.216,7.664 109.476,6.584 110.916,6.584 C112.356,6.584 113.616,7.664 113.616,9.662 C113.616,11.678 112.356,12.758 110.916,12.758 Z M119.196,14 L119.196,8.996 C119.196,7.682 119.88,6.62 121.212,6.62 C122.724,6.62 123.228,7.592 123.228,8.798 L123.228,14 L124.92,14 L124.92,8.51 C124.92,6.584 123.894,5.09 121.824,5.09 C120.816,5.09 119.79,5.504 119.16,6.584 L119.16,5.342 L117.504,5.342 L117.504,14 L119.196,14 Z" id="ATSproduction" fill="#DE2F2F" fill-rule="nonzero"></path>
    </g>
</svg>