<?xml version="1.0" encoding="UTF-8"?>
<svg width="196px" height="138px" viewBox="0 0 196 138" version="1.1" xmlns="http://www.w3.org/2000/svg" xmlns:xlink="http://www.w3.org/1999/xlink">
    <!-- Generator: Sketch 61 (89581) - https://sketch.com -->
    <title>Final-ats-gear</title>
    <desc>Created with Sketch.</desc>
    <g id="Page-1" stroke="none" stroke-width="1" fill="none" fill-rule="evenodd">
        <g id="Final-ats-gear" fill-rule="nonzero">
            <g id="Group" transform="translate(120.000000, 0.000000)">
                <path d="M75.0424,33.9647525 L70.1252,33.4164356 C69.7072,33.370099 69.3728,33.0457426 69.293,32.6287129 C69.008,31.1343564 68.6242,29.6824752 68.1454,28.2692079 C68.0048,27.8637624 68.1378,27.419703 68.476,27.1648515 L72.4622,24.1877228 C72.8536,23.8942574 72.9676,23.349802 72.7244,22.9211881 L68.9206,16.2255446 C68.6774,15.7969307 68.1568,15.6231683 67.7122,15.8239604 L63.1674,17.8473267 C62.7836,18.0210891 62.3352,17.9129703 62.0616,17.5886139 C61.0888,16.4572277 60.0438,15.3953465 58.9266,14.4068317 C58.6074,14.1288119 58.501,13.6731683 58.672,13.2831683 L60.667,8.66108911 C60.8608,8.20930693 60.6898,7.68029703 60.2718,7.43316832 L53.6788,3.56792079 C53.257,3.32079208 52.7212,3.43663366 52.4324,3.83435644 L49.0808,8.47960396 L49.077,8.47960396 C47.4848,7.87722772 45.8356,7.40613861 44.1332,7.07405941 C43.719,6.9929703 43.3998,6.65316832 43.3542,6.22841584 L42.8108,1.21247525 C42.7576,0.722079208 42.3472,0.351386139 41.8608,0.351386139 L34.2532,0.351386139 C33.7668,0.351386139 33.3564,0.722079208 33.3032,1.21247525 L32.7636,6.22841584 C32.718,6.65316832 32.3988,6.9929703 31.9846,7.07405941 C30.5178,7.35980198 29.089,7.74980198 27.7058,8.23633663 C27.3068,8.37534653 26.866,8.24405941 26.619,7.89653465 L23.6816,3.83435644 C23.3928,3.43663366 22.857,3.32079208 22.4352,3.56792079 L15.846,7.43316832 C15.4242,7.68029703 15.2532,8.20930693 15.4508,8.66108911 L17.4458,13.2831683 C17.6168,13.6731683 17.5104,14.1288119 17.1912,14.4068317 C16.074,15.3953465 15.029,16.4572277 14.0562,17.5886139 C13.7826,17.9129703 13.3342,18.0210891 12.9504,17.8511881 L8.4018,15.8239604 C7.9572,15.6231683 7.4366,15.7969307 7.1934,16.2255446 L3.3896,22.9211881 C3.1464,23.349802 3.2604,23.8942574 3.6518,24.1877228 L7.6418,27.1648515 C7.98,27.419703 8.1092,27.8676238 7.9724,28.2692079 C7.4936,29.6824752 7.106,31.1343564 6.8248,32.6287129 C6.745,33.0457426 6.4106,33.370099 5.9926,33.4164356 L1.0716,33.9647525 C0.589,34.0188119 0.2242,34.4358416 0.2242,34.930099 L0.2242,38.7953465 L21.4776,38.7953465 C21.4776,29.4932673 28.9028,21.9481188 38.057,21.9481188 C47.2112,21.9481188 54.6364,29.4932673 54.6364,38.7953465 L75.8898,38.7953465 L75.8898,34.930099 C75.8898,34.4358416 75.525,34.0188119 75.0424,33.9647525 Z" id="Path" fill="#303742"></path>
                <g transform="translate(13.300000, 13.900990)" id="Path">
                    <path d="M48.7464,24.8943564 L41.3364,24.8943564 C41.3364,15.5922772 33.9112,8.04712871 24.757,8.04712871 C15.6028,8.04712871 8.1776,15.5922772 8.1776,24.8943564 L0.7676,24.8943564 C0.7676,24.6163366 0.7714,24.3421782 0.779,24.0680198 C0.7866,23.8749505 0.7942,23.6818812 0.8056,23.4888119 C0.817,23.299604 0.8284,23.110396 0.8436,22.9211881 C0.8816,22.450099 0.931,21.9790099 0.9956,21.5156436 C1.0602,21.0484158 1.1362,20.5889109 1.2236,20.1294059 C1.273,19.8822772 1.3262,19.6351485 1.3832,19.3880198 C1.5618,18.6041584 1.7784,17.8318812 2.0292,17.0750495 C2.09,16.8858416 2.1546,16.700495 2.223,16.5112871 C2.2876,16.3259406 2.356,16.1405941 2.432,15.9552475 C2.5954,15.5420792 2.7664,15.1327723 2.9488,14.7273267 C3.0096,14.5921782 3.0704,14.4570297 3.135,14.3257426 C3.2186,14.1481188 3.306,13.970495 3.3934,13.7967327 C3.5264,13.5341584 3.6632,13.2754455 3.8038,13.0167327 C3.8722,12.8893069 3.9482,12.7580198 4.0204,12.6305941 C4.0888,12.5031683 4.1648,12.3757426 4.2408,12.2521782 C4.3358,12.09 4.4384,11.9278218 4.5372,11.769505 C4.7652,11.4026733 5.0046,11.0435644 5.2554,10.6921782 C5.4644,10.3987129 5.6734,10.1129703 5.89,9.83108911 C5.8976,9.81950495 5.9052,9.81178218 5.9166,9.80019802 C6.0306,9.65346535 6.1446,9.51059406 6.2624,9.36386139 C6.3802,9.2209901 6.498,9.0819802 6.6196,8.93910891 C6.7412,8.79237624 6.8704,8.64564356 6.9996,8.50277228 C7.1288,8.35990099 7.258,8.2170297 7.391,8.07415842 C7.524,7.93514851 7.657,7.79613861 7.7938,7.65712871 C7.9268,7.5219802 8.0598,7.38683168 8.1966,7.25554455 C8.208,7.24009901 8.2232,7.22851485 8.2346,7.22079208 C8.3638,7.09722772 8.4968,6.96980198 8.626,6.85009901 C8.8084,6.68019802 8.9908,6.5180198 9.1808,6.3519802 C9.405,6.1550495 9.633,5.96584158 9.8648,5.78049505 C10.0472,5.63376238 10.2334,5.4870297 10.4196,5.34415842 C10.678,5.15108911 10.9364,4.96188119 11.1986,4.78039604 C11.248,4.74564356 11.2974,4.71089109 11.343,4.68 C11.6812,4.44445545 12.027,4.22049505 12.3804,4.00811881 C12.5134,3.9270297 12.6426,3.84594059 12.7756,3.76871287 C13.3,3.45980198 13.8358,3.17405941 14.383,2.90762376 C14.5464,2.82653465 14.7136,2.74544554 14.8846,2.66821782 C15.0024,2.61415842 15.124,2.56009901 15.2456,2.50990099 C15.4812,2.40178218 15.7206,2.30138614 15.96,2.20871287 C16.0018,2.18940594 16.0474,2.17009901 16.093,2.15465347 C16.226,2.10059406 16.359,2.05039604 16.492,2.00019802 C16.6174,1.95386139 16.7466,1.90752475 16.8758,1.8650495 C16.9366,1.8380198 16.9974,1.81871287 17.062,1.79940594 C17.2482,1.73376238 17.4344,1.6719802 17.6206,1.61405941 C17.8372,1.54455446 18.0538,1.47891089 18.2742,1.41712871 C18.4376,1.37079208 18.5972,1.32831683 18.7606,1.28584158 C18.9506,1.23564356 19.1444,1.18544554 19.3382,1.1429703 C19.4332,1.11594059 19.5244,1.09663366 19.6156,1.07732673 C19.7068,1.0580198 19.7942,1.03871287 19.8854,1.01940594 C19.9158,1.01168317 19.9462,1.0039604 19.9804,1.00009901 C20.0678,0.980792079 20.159,0.965346535 20.2502,0.946039604 C20.3376,0.926732673 20.425,0.911287129 20.5162,0.895841584 C20.71,0.861089109 20.9038,0.826336634 21.1014,0.799306931 C21.2496,0.776138614 21.3978,0.752970297 21.546,0.733663366 C21.6676,0.718217822 21.7892,0.702772277 21.9108,0.687326733 C21.945,0.67960396 21.9792,0.675742574 22.0172,0.675742574 C22.1578,0.656435644 22.3022,0.640990099 22.4466,0.629405941 C22.5986,0.61009901 22.7506,0.598514851 22.9026,0.586930693 C23.0926,0.571485149 23.2826,0.55990099 23.4726,0.552178218 C23.8982,0.529009901 24.3276,0.517425743 24.757,0.517425743 C25.1864,0.517425743 25.6158,0.529009901 26.0414,0.552178218 C26.2314,0.55990099 26.4214,0.571485149 26.6114,0.586930693 C26.7634,0.598514851 26.9154,0.61009901 27.0674,0.629405941 C27.2118,0.640990099 27.3562,0.656435644 27.4968,0.675742574 C27.5348,0.675742574 27.569,0.67960396 27.6032,0.687326733 C27.7248,0.702772277 27.8464,0.718217822 27.968,0.733663366 C28.1162,0.752970297 28.2644,0.776138614 28.4126,0.799306931 C28.6102,0.826336634 28.804,0.861089109 28.9978,0.895841584 C29.089,0.911287129 29.1764,0.926732673 29.2638,0.946039604 C29.355,0.965346535 29.4462,0.980792079 29.5336,1.00009901 C29.5678,1.0039604 29.5982,1.01168317 29.6286,1.01940594 C29.7198,1.03871287 29.8072,1.0580198 29.8984,1.07732673 C29.9896,1.09663366 30.0808,1.11594059 30.1758,1.1429703 C30.3696,1.18544554 30.5634,1.23564356 30.7534,1.28584158 C30.9168,1.32831683 31.0764,1.37079208 31.2398,1.41712871 C31.4602,1.47891089 31.6768,1.54455446 31.8934,1.61405941 C32.0796,1.6719802 32.2658,1.73376238 32.452,1.79940594 C32.5166,1.81871287 32.5812,1.84188119 32.642,1.8650495 C32.7712,1.90752475 32.8966,1.95386139 33.022,2.00019802 C33.155,2.05039604 33.288,2.10059406 33.421,2.15465347 C33.4666,2.17009901 33.5122,2.18940594 33.554,2.20871287 C33.7934,2.30138614 34.0328,2.40178218 34.2684,2.50990099 C34.39,2.56009901 34.5116,2.61415842 34.6294,2.66821782 C34.8004,2.74544554 34.9676,2.82653465 35.131,2.90762376 C35.6782,3.17405941 36.214,3.45980198 36.7384,3.76871287 C36.8714,3.84594059 37.0006,3.9270297 37.1336,4.00811881 C37.487,4.22049505 37.8328,4.44445545 38.171,4.68 C38.2166,4.71089109 38.266,4.74564356 38.3154,4.78039604 C38.5776,4.96188119 38.836,5.15108911 39.0944,5.34415842 C39.2806,5.4870297 39.4668,5.63376238 39.6492,5.78049505 C39.881,5.96584158 40.109,6.1550495 40.3332,6.3519802 C40.5232,6.5180198 40.7056,6.68019802 40.888,6.85009901 C41.0172,6.96980198 41.1502,7.09722772 41.2794,7.22079208 C41.2908,7.22851485 41.306,7.24009901 41.3174,7.25554455 C41.4542,7.38683168 41.5872,7.5219802 41.7202,7.65712871 C41.857,7.79613861 41.99,7.93514851 42.123,8.07415842 C42.256,8.2170297 42.3852,8.35990099 42.5144,8.50277228 C42.6436,8.64564356 42.7728,8.79237624 42.8944,8.93910891 C43.016,9.0819802 43.1338,9.2209901 43.2516,9.36386139 C43.3694,9.51059406 43.4834,9.65346535 43.5974,9.80019802 C43.6088,9.81178218 43.6164,9.81950495 43.624,9.83108911 C43.8406,10.1129703 44.0496,10.3987129 44.2586,10.6921782 C44.5094,11.0435644 44.7488,11.4026733 44.9768,11.769505 C45.0756,11.9278218 45.1782,12.09 45.2732,12.2521782 C45.3492,12.3757426 45.4252,12.5031683 45.4936,12.6305941 C45.5658,12.7580198 45.6418,12.8893069 45.7102,13.0167327 C45.8508,13.2754455 45.9876,13.5341584 46.1206,13.7967327 C46.208,13.970495 46.2954,14.1481188 46.379,14.3257426 C46.4436,14.4570297 46.5044,14.5921782 46.5652,14.7273267 C46.7476,15.1327723 46.9186,15.5420792 47.082,15.9552475 C47.158,16.1405941 47.2264,16.3259406 47.291,16.5112871 C47.3594,16.700495 47.424,16.8858416 47.4848,17.0750495 C47.7356,17.8318812 47.9522,18.6041584 48.1308,19.3880198 C48.1878,19.6351485 48.241,19.8822772 48.2904,20.1294059 C48.3778,20.5889109 48.4538,21.0484158 48.5184,21.5156436 C48.583,21.9790099 48.6324,22.450099 48.6704,22.9211881 C48.6856,23.110396 48.697,23.299604 48.7084,23.4888119 C48.7198,23.6818812 48.7274,23.8749505 48.735,24.0680198 C48.7426,24.3421782 48.7464,24.6163366 48.7464,24.8943564 Z" fill="#303742"></path>
                    <path d="M0.8094,24.0680198 C0.798,24.0680198 0.7866,24.0680198 0.7752,24.0680198 C0.4598,24.0487129 0.2204,23.7745545 0.2394,23.4579208 C0.931,11.039703 10.6552,0.957623762 22.8608,0.0115841584 C23.1724,-0.0154455446 23.4498,0.227821782 23.4726,0.544455446 C23.4954,0.864950495 23.2598,1.1429703 22.9482,1.16613861 C11.3088,2.06970297 2.0368,11.6806931 1.3794,23.5235644 C1.3604,23.8324752 1.1096,24.0680198 0.8094,24.0680198 Z" fill="#FFFFFF"></path>
                    <path d="M48.7084,24.0680198 C48.4082,24.0680198 48.1574,23.8286139 48.1384,23.519703 C47.481,11.6768317 38.2052,2.06584158 26.5696,1.16227723 C26.2542,1.13910891 26.0224,0.861089109 26.0452,0.540594059 C26.068,0.22009901 26.3492,-0.0193069307 26.657,0.00772277228 C38.8626,0.957623762 48.5868,11.0358416 49.2784,23.4540594 C49.2974,23.7745545 49.0542,24.0487129 48.7426,24.0641584 C48.7312,24.0680198 48.7198,24.0680198 48.7084,24.0680198 Z" fill="#FFFFFF"></path>
                </g>
            </g>
            <g id="Group" transform="translate(0.000000, 34.000000)">
                <path d="M82.5064854,46.2078832 C80.3714175,46.2078832 78.0650874,46.9594161 76.6835728,48.7547445 L76.6835728,38.969635 L71.823534,38.969635 L71.823534,66.8864234 L76.6835728,66.8864234 L76.6835728,55.1921168 C76.767301,52.599708 78.2325437,50.5956204 80.9156505,50.5956204 C83.975534,50.5956204 85.1058641,52.599708 85.1058641,55.1086131 L85.1058641,65.2049635 C86.719534,64.5293431 88.3408155,63.8309489 89.9659029,63.1021898 L89.9659029,54.269781 C89.9659029,49.8023358 87.5339806,46.2078832 82.5064854,46.2078832 Z" id="Path" fill="#000000"></path>
                <g transform="translate(13.320388, 26.189781)" fill="#DD2A26" id="Path">
                    <path d="M87.3170485,41.4481752 C84.6681942,42.5489051 81.950835,43.6078832 79.1725825,44.6213139 C40.9126214,58.5664234 5.63642718,58.2437956 0.380582524,43.9039416 C0.350135922,43.8242336 0.323495146,43.7445255 0.300660194,43.6648175 C6.96846602,55.1731387 37.2057476,53.2145985 70.6437282,39.489635 C71.0243107,39.330219 71.4048932,39.1745985 71.7854757,39.0151825 C73.3991456,38.339562 75.0204272,37.6411679 76.6455146,36.9124088 C77.0260971,36.7416058 77.4066796,36.5708029 77.7872621,36.3962044 C77.8519612,36.3658394 77.920466,36.3354745 77.985165,36.3051095 C79.0355728,35.8268613 80.0745631,35.3410219 81.1021359,34.8475912 C81.9470291,37.6183942 84.0021748,40.1614599 87.3170485,41.4481752 Z"></path>
                    <path d="M136.103922,0.375766423 L134.703379,10.9731387 L133.812816,17.7217518 L130.646369,14.7611679 L130.364738,14.4992701 L130.35332,14.4878832 C127.278214,17.6724088 123.502835,20.8986861 119.126136,24.0680292 L119.126136,18.8528467 L114.894058,18.8528467 L114.894058,14.0437956 C117.6,11.8575182 120.069981,9.66744526 122.281165,7.50014599 L122.578019,7.22306569 L122.547573,7.19649635 L118.897786,3.78423358 L128.142136,1.95474453 L129.409476,1.70043796 L135.517825,0.493430657 L136.103922,0.375766423 Z"></path>
                    <path d="M95.5947184,33.2116788 C95.5947184,35.0905109 93.3340583,35.2916788 92.359767,35.2916788 C91.6785243,35.2916788 88.2570874,35.1056934 87.8993398,31.4543066 C88.5425243,31.120292 89.1819029,30.7786861 89.8136699,30.4370803 L93.2998058,31.169635 C93.9886602,31.3138686 95.5947184,31.8072993 95.5947184,33.2116788 Z"></path>
                    <path d="M107.792388,25.4344526 L107.792388,31.3935766 C106.273864,32.270365 104.713476,33.139562 103.107417,33.9973723 C103.156893,33.6254015 103.179728,33.249635 103.179728,32.8776642 C103.179728,29.6437956 101.558447,26.960292 98.7687767,25.3091971 C100.572738,24.2084672 102.323417,23.0963504 104.020816,21.9728467 L104.020816,25.4344526 L107.792388,25.4344526 Z"></path>
                    <path d="M117.204194,25.4344526 C116.450641,25.9620438 115.678058,26.4820438 114.894058,27.0020438 L114.894058,25.4344526 L117.204194,25.4344526 Z"></path>
                </g>
                <g transform="translate(34.252427, 1.897810)" fill="#DD2A26">
                    <path d="M14.1690874,18.4163504 C14.1576699,18.1772263 14.1538641,17.9267153 14.1538641,17.6610219 L14.1538641,4.96846715 L10.4469903,4.96846715 L10.4469903,14.150073 C10.4469903,16.1921168 9.32807767,17.6268613 7.18539806,17.6268613 C4.94757282,17.6268613 4.04939806,16.0023358 4.04939806,14.0893431 L4.04939806,4.96846715 L0.342524272,4.96846715 L0.342524272,14.7573723 C0.342524272,18.2 2.51565049,20.9442336 6.2263301,20.9442336 C8.04932039,20.9442336 9.87231068,20.1775182 10.6372816,18.7769343 C10.6372816,19.4145985 10.7019806,20.1471533 10.7666796,20.4963504 L14.3137087,20.4963504 C14.264233,20.0408759 14.1919223,19.3272993 14.1690874,18.4163504 Z" id="Path"></path>
                    <path d="M25.632233,17.4029197 C24.2583301,17.4029197 23.6493981,16.829781 23.6493981,15.459562 L23.6493981,8.25167883 L26.8805437,8.25167883 L26.8805437,4.96846715 L23.6493981,4.96846715 L23.6493981,0.216350365 L20.2926602,0.216350365 L20.2926602,2.54306569 C20.2926602,3.91328467 19.5581359,4.96846715 17.8949903,4.96846715 L17.095767,4.96846715 L17.095767,8.25167883 L19.9729709,8.25167883 L19.9729709,16.0630657 C19.9729709,18.9667153 21.7655146,20.689927 24.6427184,20.689927 C25.9861748,20.689927 26.6902524,20.4356204 26.9109903,20.3369343 L26.9109903,17.2776642 C26.7511456,17.3080292 26.1460194,17.4029197 25.632233,17.4029197 Z" id="Path"></path>
                    <path d="M37.3693981,4.49021898 C32.7300971,4.49021898 29.3086602,7.96321168 29.3086602,12.7153285 C29.3086602,17.5016058 32.7300971,20.9745985 37.3693981,20.9745985 C42.0353398,20.9745985 45.4567767,17.5016058 45.4567767,12.7153285 C45.4567767,7.96321168 42.0353398,4.49021898 37.3693981,4.49021898 Z M37.3693981,17.6610219 C35.0973204,17.6610219 33.0193398,15.9378102 33.0193398,12.7153285 C33.0193398,9.49664234 35.0973204,7.8379562 37.3693981,7.8379562 C39.6719223,7.8379562 41.7156505,9.49664234 41.7156505,12.7153285 C41.7156505,15.9681752 39.6719223,17.6610219 37.3693981,17.6610219 Z" id="Shape"></path>
                    <path d="M57.254835,4.52058394 C55.5307961,4.52058394 53.6735534,5.25313869 52.6497864,7.04087591 L52.6497864,4.96846715 L49.0380583,4.96846715 L49.0380583,20.4963504 L52.7487379,20.4963504 L52.7487379,11.5348905 C52.7487379,9.49664234 53.8676505,7.86832117 55.9760777,7.86832117 C58.3128544,7.86832117 59.1729709,9.3979562 59.1729709,11.3147445 L59.1729709,20.4963504 L62.8836505,20.4963504 L62.8836505,10.6770803 C62.8836505,7.26481752 61.0606602,4.52058394 57.254835,4.52058394 Z" id="Path"></path>
                    <path d="M74.2326214,4.49021898 C69.5971262,4.49021898 66.1756893,7.96321168 66.1756893,12.7153285 C66.1756893,17.5016058 69.5971262,20.9745985 74.2326214,20.9745985 C78.9023689,20.9745985 82.3238058,17.5016058 82.3238058,12.7153285 C82.3238058,7.96321168 78.9023689,4.49021898 74.2326214,4.49021898 Z M74.2326214,17.6610219 C71.9643495,17.6610219 69.8863689,15.9378102 69.8863689,12.7153285 C69.8863689,9.49664234 71.9643495,7.8379562 74.2326214,7.8379562 C76.5351456,7.8379562 78.5826796,9.49664234 78.5826796,12.7153285 C78.5826796,15.9681752 76.5351456,17.6610219 74.2326214,17.6610219 Z" id="Shape"></path>
                    <path d="M103.777243,4.52058394 C101.763961,4.52058394 99.9409709,5.22277372 98.7269126,7.26481752 C97.8934369,5.44671533 96.104699,4.52058394 94.057165,4.52058394 C92.2988738,4.52058394 90.3502913,5.3480292 89.4521165,6.9459854 L89.4521165,4.96846715 L85.9050874,4.96846715 L85.9050874,20.4963504 L89.5815146,20.4963504 L89.5815146,11.2805839 C89.5815146,9.30306569 90.8298252,7.8379562 92.8126602,7.8379562 C94.9210874,7.8379562 95.8154563,9.23854015 95.8154563,11.0262774 L95.8154563,20.4963504 L99.4614369,20.4963504 L99.4614369,11.2805839 C99.4614369,9.36759124 100.740194,7.8379562 102.692583,7.8379562 C104.770563,7.8379562 105.695379,9.20817518 105.695379,11.0262774 L105.695379,20.4963504 L109.280466,20.4963504 L109.280466,10.4189781 C109.280466,6.30452555 106.593553,4.52058394 103.777243,4.52058394 Z" id="Path"></path>
                    <path d="M120.659883,4.49021898 C116.024388,4.49021898 112.602951,7.96321168 112.602951,12.7153285 C112.602951,17.5016058 116.024388,20.9745985 120.659883,20.9745985 C125.329631,20.9745985 128.751068,17.5016058 128.751068,12.7153285 C128.751068,7.96321168 125.329631,4.49021898 120.659883,4.49021898 Z M120.659883,17.6610219 C118.387806,17.6610219 116.309825,15.9378102 116.309825,12.7153285 C116.309825,9.49664234 118.387806,7.8379562 120.659883,7.8379562 C122.962408,7.8379562 125.009942,9.49664234 125.009942,12.7153285 C125.009942,15.9681752 122.962408,17.6610219 120.659883,17.6610219 Z" id="Shape"></path>
                    <path d="M145.888699,17.6610219 L145.888699,4.96846715 L142.178019,4.96846715 L142.178019,14.150073 C142.178019,16.1921168 141.059107,17.6268613 138.916427,17.6268613 C136.678602,17.6268613 135.784233,16.0023358 135.784233,14.0893431 L135.784233,4.96846715 L132.073553,4.96846715 L132.073553,14.7573723 C132.073553,18.2 134.24668,20.9442336 137.957359,20.9442336 C139.78035,20.9442336 141.60334,20.1775182 142.372117,18.7769343 C142.372117,19.4145985 142.43301,20.1471533 142.497709,20.4963504 L146.048544,20.4963504 C145.983845,19.9232117 145.888699,18.9363504 145.888699,17.6610219 Z" id="Path"></path>
                    <path d="M157.142524,11.2805839 L154.775301,10.8023358 C153.816233,10.6125547 153.207301,10.0052555 153.207301,9.17781022 C153.207301,8.22131387 154.135922,7.39007299 155.448932,7.39007299 C157.526913,7.39007299 158.196738,8.82481752 158.326136,9.71678832 L161.45833,8.82481752 C161.20334,7.29518248 159.795184,4.49021898 155.448932,4.49021898 C152.217786,4.49021898 149.724971,6.78277372 149.724971,9.49664234 C149.724971,11.6335766 151.163573,13.4175182 153.911379,14.0248175 L156.213903,14.5334307 C157.462214,14.7877372 158.036893,15.4254015 158.036893,16.2566423 C158.036893,17.2131387 157.23767,18.0405839 155.703922,18.0405839 C153.721087,18.0405839 152.666874,16.7994161 152.537476,15.3950365 L149.30633,16.2870073 C149.500427,18.0405839 151.228272,20.9745985 155.734369,20.9745985 C159.700039,20.9745985 161.618175,18.3594161 161.618175,16.0023358 C161.618175,13.7059854 160.084427,11.9182482 157.142524,11.2805839 Z" id="Path"></path>
                </g>
                <polygon id="Path" fill="#000000" points="2.53087379 38.969635 2.53087379 43.6913869 11.4060583 43.6913869 11.4060583 66.8864234 16.4335534 66.8864234 16.4335534 43.6913869 25.3506019 43.6913869 25.3506019 38.969635"></polygon>
                <path d="M44.1285437,55.9778102 C44.1285437,49.5442336 40.440699,45.4070073 34.1572816,45.4070073 C29.0041942,45.4070073 24.2278835,49.6694891 24.2278835,56.1030657 C24.2278835,62.9959124 29.1297864,67.0078832 34.6596505,67.0078832 C39.5615534,67.0078832 42.7850874,64.1270073 43.8773592,60.5743066 L39.7708738,59.28 C39.1010485,61.2840876 37.5901359,62.8289051 34.6596505,62.8289051 C31.6416311,62.8289051 29.2135146,60.6160584 29.0879223,57.5226277 L44.0029515,57.5226277 C44.0448155,57.4391241 44.1285437,56.7710949 44.1285437,55.9778102 Z M29.2135146,53.969927 C29.3809709,51.7988321 31.1392621,49.4569343 34.1991456,49.4569343 C37.5482718,49.4569343 39.1429126,51.590073 39.2266408,53.969927 L29.2135146,53.969927 Z" id="Shape" fill="#000000"></path>
                <path d="M63.2337864,58.8169343 C62.7732816,60.3655474 61.3080388,62.5783942 58.1225631,62.5783942 C55.0664854,62.5783942 52.4252427,60.2820438 52.4252427,56.1865693 C52.4252427,52.0910949 55.0664854,49.8782482 58.038835,49.8782482 C61.1405825,49.8782482 62.5220971,51.8823358 62.9826019,53.6776642 L67.3402718,52.0910949 C66.5029903,48.8306569 63.4887767,45.4070073 57.9969709,45.4070073 C52.1321942,45.4070073 47.5652039,49.92 47.5652039,56.1865693 C47.5652039,62.369635 52.1321942,67.0078832 58.1225631,67.0078832 C63.4887767,67.0078832 66.5448544,63.5386861 67.5077282,60.3655474 L63.2337864,58.8169343 Z" id="Path" fill="#000000"></path>
                <path d="M145.428194,45.4070073 C139.354097,45.4070073 134.870835,49.9617518 134.870835,56.1865693 C134.870835,62.4531387 139.354097,67.0078832 145.428194,67.0078832 C151.544155,67.0078832 156.027417,62.4531387 156.027417,56.1865693 C156.027417,49.9617518 151.544155,45.4070073 145.428194,45.4070073 Z M145.428194,62.6618978 C142.452039,62.6618978 139.730874,60.4072993 139.730874,56.1865693 C139.730874,51.9658394 142.452039,49.7947445 145.428194,49.7947445 C148.446214,49.7947445 151.125515,51.9658394 151.125515,56.1865693 C151.125515,60.4490511 148.446214,62.6618978 145.428194,62.6618978 Z" id="Shape" fill="#000000"></path>
                <path d="M171.361087,45.7827737 C168.681786,45.7827737 166.41732,47.0770803 165.454447,49.2937226 L165.454447,46.0332847 L160.72,46.0332847 L160.72,66.3816058 L165.580039,66.3816058 L165.580039,56.6875912 C165.580039,52.8843796 167.296466,50.7132847 171.068039,50.7132847 C171.570408,50.7132847 172.114641,50.7550365 172.658874,50.8385401 L172.658874,45.9080292 C172.449553,45.8662774 171.947184,45.7827737 171.361087,45.7827737 Z" id="Path" fill="#000000"></path>
                <path d="M194.824,55.9778102 C194.824,49.5442336 191.136155,45.4070073 184.852738,45.4070073 C179.69965,45.4070073 174.92334,49.6694891 174.92334,56.1030657 C174.92334,62.9959124 179.825243,67.0078832 185.355107,67.0078832 C190.25701,67.0078832 193.48435,64.1270073 194.572816,60.5743066 L190.46633,59.28 C189.796505,61.2840876 188.289398,62.8289051 185.355107,62.8289051 C182.337087,62.8289051 179.908971,60.6160584 179.783379,57.5226277 L194.698408,57.5226277 C194.740272,57.4391241 194.824,56.7710949 194.824,55.9778102 Z M179.908971,53.969927 C180.076427,51.7988321 181.834718,49.4569343 184.894602,49.4569343 C188.247534,49.4569343 189.838369,51.590073 189.922097,53.969927 L179.908971,53.969927 Z" id="Shape" fill="#000000"></path>
                <path d="M30.4504078,18.1127007 C30.4427961,18.1620438 30.4313786,18.2075912 30.423767,18.2569343 C30.4123495,18.3062774 30.4047379,18.3518248 30.3933204,18.4011679 C30.0926602,19.7713869 29.3162718,20.9214599 28.2696699,21.7109489 C27.5161165,22.2840876 26.6179417,22.6674453 25.6588738,22.8116788 C25.1565049,22.8875912 24.631301,22.8951825 24.1060971,22.8306569 C23.9805049,22.8154745 23.8549126,22.7964964 23.7293204,22.769927 C23.0747184,22.6446715 22.4657864,22.4093431 21.9215534,22.0905109 C21.4191845,21.7944526 20.9662913,21.4262774 20.5819029,21.0011679 C20.3269126,20.7240876 20.1061748,20.420438 19.9120777,20.0978102 C19.2156117,18.9363504 18.9263689,17.5281752 19.2041942,16.0934307 C19.2422524,15.899854 19.2650874,15.7062774 19.2688932,15.5127007 C19.2688932,15.5127007 19.2688932,15.5127007 19.2688932,15.5089051 C19.3297864,13.8616058 18.3060194,12.3509489 16.7494369,11.7967883 C16.7494369,11.7967883 16.7456311,11.7967883 16.7456311,11.7967883 C16.6999612,11.7816058 16.6504854,11.7626277 16.6010097,11.7474453 C16.5972039,11.7474453 16.5933981,11.7436496 16.5895922,11.7436496 C16.528699,11.7246715 16.4716117,11.7094891 16.4107184,11.6943066 C16.3840777,11.6867153 16.3574369,11.6791241 16.3307961,11.6753285 C16.2813204,11.6639416 16.2356505,11.6525547 16.1861748,11.6449635 C16.1633398,11.6411679 16.1443107,11.6373723 16.1214757,11.6335766 C16.094835,11.629781 16.0681942,11.6259854 16.0415534,11.6221898 C16.0263301,11.6183942 16.007301,11.6145985 15.9882718,11.6145985 C15.9654369,11.6108029 15.9426019,11.6070073 15.919767,11.6070073 C15.8931262,11.6032117 15.8702913,11.5994161 15.8436505,11.5994161 C15.7789515,11.5918248 15.7142524,11.5880292 15.6495534,11.5842336 C15.6457476,11.5842336 15.6381359,11.5842336 15.6343301,11.5842336 C15.5734369,11.580438 15.5163495,11.580438 15.4554563,11.580438 C15.4554563,11.580438 15.4554563,11.580438 15.4554563,11.580438 C15.4212039,11.580438 15.3907573,11.580438 15.3565049,11.580438 C15.2689709,11.580438 15.1852427,11.5880292 15.0977087,11.5956204 C15.0786796,11.5956204 15.0596505,11.5994161 15.0406214,11.6032117 C14.9873398,11.6070073 14.9302524,11.6145985 14.8769709,11.6259854 C14.8769709,11.6259854 14.8769709,11.6259854 14.8769709,11.6259854 C14.8541359,11.629781 14.8274951,11.6335766 14.8046602,11.6373723 C14.7513786,11.6449635 14.7019029,11.6563504 14.6486214,11.6677372 C14.6295922,11.6715328 14.6105631,11.6753285 14.591534,11.6791241 C14.5839223,11.6791241 14.5763107,11.6829197 14.5648932,11.6829197 C14.5458641,11.6867153 14.526835,11.6943066 14.5078058,11.6981022 C14.4697476,11.7056934 14.4316893,11.7170803 14.3936311,11.7284672 C14.3707961,11.7360584 14.3479612,11.739854 14.3251262,11.7474453 C14.2984854,11.7550365 14.2718447,11.7626277 14.2452039,11.7740146 C14.2185631,11.7816058 14.1919223,11.7929927 14.1690874,11.8005839 C14.1462524,11.8081752 14.1234175,11.8157664 14.1005825,11.8271533 C14.0320777,11.8537226 13.9635728,11.880292 13.895068,11.9106569 C13.872233,11.9220438 13.8493981,11.929635 13.8265631,11.9410219 C13.8113398,11.9486131 13.7961165,11.9562044 13.7808932,11.9637956 C13.7618641,11.9713869 13.742835,11.9827737 13.7238058,11.9941606 C13.7009709,12.0055474 13.6781359,12.0169343 13.655301,12.0283212 C13.6286602,12.0435036 13.6020194,12.0586861 13.5791845,12.070073 C13.5563495,12.0814599 13.5335146,12.0966423 13.5106796,12.1080292 C13.4650097,12.1345985 13.4193398,12.1649635 13.3736699,12.1915328 C13.350835,12.2067153 13.328,12.2218978 13.305165,12.2370803 C13.2176311,12.2978102 13.1300971,12.3623358 13.0463689,12.4306569 C13.023534,12.4458394 13.0045049,12.4648175 12.9854757,12.4837956 C12.958835,12.5065693 12.9283883,12.5331387 12.9017476,12.5559124 C12.871301,12.5824818 12.8370485,12.6128467 12.8066019,12.6432117 C12.7647379,12.6811679 12.7266796,12.7229197 12.6886214,12.7646715 C12.6505631,12.8026277 12.6163107,12.8405839 12.5820583,12.8785401 C12.5782524,12.8823358 12.5782524,12.8823358 12.5744466,12.8861314 C12.5554175,12.9051095 12.5401942,12.9278832 12.521165,12.9506569 C12.5021359,12.9734307 12.4869126,12.9924088 12.4678835,13.0151825 C12.4488544,13.0379562 12.4336311,13.0569343 12.4184078,13.079708 C12.4031845,13.1024818 12.3841553,13.1252555 12.368932,13.1442336 C12.3194563,13.2163504 12.2699806,13.2846715 12.2243107,13.3605839 C12.2128932,13.379562 12.1976699,13.4023358 12.1862524,13.4213139 C12.1710291,13.4440876 12.1558058,13.4706569 12.1443883,13.4934307 C12.129165,13.5162044 12.1177476,13.5427737 12.1025243,13.5655474 C12.087301,13.5921168 12.0758835,13.6148905 12.064466,13.6376642 C12.0530485,13.660438 12.0416311,13.6832117 12.0302136,13.709781 C11.9807379,13.8122628 11.935068,13.9147445 11.8932039,14.0210219 C11.8817864,14.0475912 11.8741748,14.0741606 11.8627573,14.1007299 C11.8132816,14.2335766 11.7752233,14.370219 11.7409709,14.5106569 C11.7333592,14.5372263 11.7295534,14.5637956 11.7219417,14.590365 C11.7143301,14.6169343 11.7105243,14.6472993 11.7067184,14.6738686 C11.7029126,14.6928467 11.6991068,14.7118248 11.695301,14.7308029 C11.6914951,14.7459854 11.6914951,14.7573723 11.6876893,14.7725547 C11.6838835,14.7991241 11.6800777,14.8294891 11.6762718,14.8560584 C11.6534369,15.0230657 11.6420194,15.1938686 11.6420194,15.3684672 C11.6420194,17.2321168 12.9892816,18.7807299 14.7627961,19.1033577 C14.7666019,19.1033577 14.7704078,19.1033577 14.7742136,19.1071533 C14.9911456,19.1451095 15.2194951,19.1678832 15.4478447,19.1678832 C16.4982524,19.1678832 17.3507573,20.0181022 17.3507573,21.0656934 C17.3507573,22.1132847 16.4982524,22.9635036 15.4478447,22.9635036 C14.0587184,22.9635036 12.760932,22.5953285 11.6382136,21.9462774 C10.4812427,21.2782482 9.51836893,20.3179562 8.84854369,19.1640876 C8.2015534,18.0481752 7.82858252,16.750073 7.82858252,15.3646715 C7.82858252,13.9792701 8.19774757,12.6849635 8.84854369,11.5652555 C9.51836893,10.4113869 10.4812427,9.45109489 11.6382136,8.78306569 C12.1634175,8.47941606 12.7304854,8.23649635 13.328,8.06569343 C13.3356117,8.06189781 13.3432233,8.06189781 13.350835,8.05810219 C13.3584466,8.05430657 13.3698641,8.05430657 13.3774757,8.05051095 C13.4345631,8.03532847 13.4916505,8.02014599 13.544932,8.0049635 C13.6096311,7.9859854 13.6781359,7.97080292 13.742835,7.95562044 C13.8303689,7.93664234 13.9217087,7.91766423 14.0130485,7.89868613 C14.0625243,7.88729927 14.1158058,7.87970803 14.1652816,7.87211679 C14.2071456,7.86452555 14.2490097,7.85693431 14.2908738,7.85313869 C14.3860194,7.8379562 14.4773592,7.82656934 14.5725049,7.81518248 C14.6448155,7.80759124 14.7171262,7.8 14.7856311,7.79240876 C14.8465243,7.78861314 14.9112233,7.78481752 14.9721165,7.7810219 C14.983534,7.7810219 14.9949515,7.7810219 15.0101748,7.77722628 C15.0672621,7.77343066 15.1281553,7.77343066 15.1852427,7.76963504 C15.2080777,7.76963504 15.2271068,7.76963504 15.2499417,7.76963504 C15.2956117,7.76963504 15.3374757,7.76583942 15.3831456,7.76583942 L15.3983689,7.76583942 C15.4173981,7.76583942 15.4364272,7.76583942 15.4554563,7.76583942 L15.463068,7.76583942 C15.4820971,7.76583942 15.5011262,7.76583942 15.5201553,7.76583942 C15.5429903,7.76583942 15.5658252,7.76583942 15.5848544,7.76583942 C15.6305243,7.76583942 15.6723883,7.76963504 15.7180583,7.76963504 C15.7294757,7.76963504 15.7370874,7.76963504 15.7485049,7.76963504 C15.7979806,7.77343066 15.8436505,7.77343066 15.8931262,7.77722628 C15.9426019,7.7810219 15.9882718,7.78481752 16.0339417,7.78861314 C16.0643883,7.78861314 16.0910291,7.79240876 16.1214757,7.79620438 C16.1899806,7.8 16.2622913,7.80759124 16.3307961,7.8189781 C16.3574369,7.82277372 16.3802718,7.82656934 16.4069126,7.83036496 C16.4449709,7.83416058 16.4830291,7.84175182 16.5210874,7.84554745 C16.5819806,7.85313869 16.639068,7.86452555 16.6999612,7.87211679 C16.7304078,7.87591241 16.7608544,7.88350365 16.791301,7.88729927 C16.8217476,7.89109489 16.8521942,7.89868613 16.8826408,7.90627737 C16.9663689,7.92145985 17.0539029,7.94043796 17.1376311,7.95941606 C17.2213592,7.97839416 17.3050874,7.99737226 17.3888155,8.02014599 C17.4268738,8.03153285 17.4687379,8.04291971 17.5067961,8.05051095 C17.5106019,8.05051095 17.5144078,8.05430657 17.5144078,8.05430657 C17.552466,8.06569343 17.5943301,8.07708029 17.6323883,8.08846715 C17.6742524,8.09985401 17.7123107,8.11124088 17.7541748,8.12642336 C17.7808155,8.1340146 17.8074563,8.14540146 17.8340971,8.1529927 C17.8607379,8.16058394 17.8873786,8.16817518 17.9102136,8.17956204 C17.9863301,8.20613139 18.0662524,8.23270073 18.1423689,8.26306569 C18.1918447,8.2820438 18.2451262,8.3010219 18.2946019,8.32379562 C18.2984078,8.32379562 18.2984078,8.32379562 18.3022136,8.32759124 C18.3440777,8.34277372 18.3859417,8.36175182 18.4278058,8.38072993 C18.4734757,8.39970803 18.5229515,8.42248175 18.5686214,8.44145985 C18.8007767,8.54773723 19.0253204,8.66160584 19.2460583,8.78686131 C20.1366214,9.29927007 20.9168155,9.99007299 21.5295534,10.809927 C21.712233,11.0528467 21.8796893,11.3071533 22.0319223,11.5690511 C22.6789126,12.6849635 23.0518835,13.9830657 23.0518835,15.3684672 C23.0518835,15.410219 23.0518835,15.4519708 23.0556893,15.4937226 C23.0480777,15.9264234 23.0024078,16.3667153 22.9186796,16.8108029 C22.7207767,17.8394161 23.3944078,18.8376642 24.4257864,19.0350365 C25.457165,19.2324088 26.4580971,18.5605839 26.656,17.5319708 C26.9109903,16.2262774 26.9262136,14.9281752 26.7397282,13.6794161 C26.6369709,12.9886131 26.4695146,12.3129927 26.241165,11.6639416 C25.9823689,10.9162044 25.6474563,10.1988321 25.240233,9.52321168 C25.023301,9.16262774 24.7873398,8.80963504 24.5285437,8.47562044 C23.6379806,7.30277372 22.5152621,6.30072993 21.2174757,5.54160584 C20.8368932,5.31766423 20.4372816,5.11649635 20.0224466,4.93810219 C19.9805825,4.91912409 19.9387184,4.90014599 19.8930485,4.88116788 C19.8511845,4.86218978 19.8055146,4.84321168 19.7636505,4.8280292 C19.7217864,4.80905109 19.6799223,4.79386861 19.6342524,4.77489051 C19.5733592,4.75211679 19.512466,4.72934307 19.4515728,4.70656934 C19.3868738,4.68 19.3221748,4.65722628 19.2612816,4.63445255 C19.2536699,4.63065693 19.2460583,4.62686131 19.2346408,4.62686131 C19.1661359,4.60408759 19.0976311,4.58131387 19.0291262,4.55854015 C18.9530097,4.5319708 18.8730874,4.50919708 18.7969709,4.48262774 C18.7018252,4.45226277 18.6066796,4.42569343 18.5077282,4.39912409 C18.4087767,4.37255474 18.3136311,4.3459854 18.2146796,4.32321168 C18.2108738,4.32321168 18.207068,4.32321168 18.2032621,4.31941606 C18.1613981,4.3080292 18.119534,4.29664234 18.0776699,4.28905109 C18.0738641,4.28905109 18.0700583,4.28905109 18.0662524,4.28525547 C18.0053592,4.27007299 17.9482718,4.25489051 17.8873786,4.24350365 C17.792233,4.22072993 17.6970874,4.20175182 17.5981359,4.18277372 C17.5905243,4.18277372 17.5829126,4.1789781 17.575301,4.1789781 C17.5410485,4.17138686 17.5067961,4.16379562 17.4687379,4.16 C17.464932,4.16 17.4573204,4.15620438 17.4535146,4.15620438 C17.4116505,4.14861314 17.3659806,4.1410219 17.3241165,4.13343066 C17.2784466,4.12583942 17.2327767,4.11824818 17.1871068,4.11065693 C17.1414369,4.10306569 17.095767,4.09547445 17.0500971,4.09167883 C17.0044272,4.08408759 16.9587573,4.08029197 16.9130874,4.07270073 C16.8826408,4.06890511 16.8521942,4.06510949 16.8179417,4.06131387 C16.7570485,4.05372263 16.6999612,4.04613139 16.639068,4.04233577 C16.5667573,4.03474453 16.4906408,4.02715328 16.4183301,4.01956204 C16.3346019,4.0119708 16.2546796,4.00437956 16.1709515,4.00058394 C15.3450874,3.94744526 14.5306408,3.98160584 13.7352233,4.09927007 C13.6476893,4.11445255 13.5563495,4.12583942 13.4688155,4.14481752 C13.3965049,4.15620438 13.3203883,4.17138686 13.2480777,4.18656934 C13.2366602,4.18656934 13.2290485,4.19036496 13.2176311,4.19416058 C13.1605437,4.20554745 13.1034563,4.21693431 13.0463689,4.22832117 C13.0463689,4.22832117 13.0463689,4.22832117 13.0463689,4.22832117 C13.0159223,4.23591241 12.9854757,4.23970803 12.9550291,4.24729927 C12.913165,4.25489051 12.871301,4.26627737 12.8332427,4.27386861 C12.8142136,4.27766423 12.7951845,4.28145985 12.7761553,4.28905109 C12.7304854,4.30043796 12.6848155,4.31182482 12.6391456,4.32321168 C12.2928155,4.40671533 11.9540971,4.50919708 11.6229903,4.62686131 C10.2034175,5.12788321 8.91324272,5.89839416 7.81335922,6.88145985 C7.49747573,7.16233577 7.19681553,7.46218978 6.91518447,7.77722628 C6.79720388,7.90627737 6.68302913,8.04291971 6.57266019,8.17956204 C6.54221359,8.21751825 6.50796117,8.25927007 6.47751456,8.29722628 C6.47370874,8.3010219 6.46990291,8.30861314 6.46229126,8.31240876 C6.44326214,8.33518248 6.42803883,8.3579562 6.40900971,8.38072993 C6.38998058,8.40350365 6.37475728,8.42627737 6.35572816,8.44905109 C6.3176699,8.50218978 6.27580583,8.55153285 6.23774757,8.60467153 C5.78104854,9.21956204 5.38524272,9.88 5.06174757,10.5783942 C5.01227184,10.6808759 4.96660194,10.7871533 4.92093204,10.8934307 C4.90570874,10.9237956 4.89429126,10.9579562 4.87906796,10.9883212 C4.84862136,11.0642336 4.81817476,11.1363504 4.78772816,11.2122628 C4.76869903,11.2616058 4.7496699,11.3109489 4.73064078,11.360292 C4.704,11.4286131 4.67735922,11.5007299 4.65452427,11.5728467 C4.2358835,12.7608759 4.00372816,14.04 4.00372816,15.3722628 C4.00372816,16.7045255 4.23207767,17.9836496 4.65452427,19.1716788 C4.90951456,19.8890511 5.23300971,20.5760584 5.62120388,21.2213139 C5.99417476,21.8475912 6.42803883,22.4321168 6.91518447,22.9710949 L2.23401942,22.9710949 C1.5527767,21.7944526 1.02376699,20.5191241 0.677436893,19.1716788 C0.616543689,18.9439416 0.567067961,18.7086131 0.517592233,18.4770803 C0.509980583,18.4391241 0.502368932,18.4049635 0.494757282,18.3670073 C0.490951456,18.3480292 0.487145631,18.3252555 0.483339806,18.3024818 C0.483339806,18.2986861 0.483339806,18.2986861 0.483339806,18.2948905 C0.483339806,18.2910949 0.483339806,18.2872993 0.483339806,18.2835036 C0.47192233,18.2265693 0.460504854,18.169635 0.449087379,18.1127007 C0.445281553,18.0823358 0.437669903,18.0519708 0.433864078,18.0216058 C0.422446602,17.9684672 0.414834951,17.9153285 0.407223301,17.8621898 C0.407223301,17.8545985 0.403417476,17.8470073 0.403417476,17.8432117 C0.39961165,17.8090511 0.392,17.7786861 0.388194175,17.7445255 C0.388194175,17.7369343 0.388194175,17.7331387 0.38438835,17.7255474 C0.380582524,17.6989781 0.376776699,17.6724088 0.372970874,17.649635 C0.369165049,17.6344526 0.369165049,17.6192701 0.365359223,17.6040876 C0.365359223,17.5927007 0.361553398,17.5851095 0.361553398,17.5737226 C0.350135922,17.5054015 0.342524272,17.4370803 0.331106796,17.3687591 C0.331106796,17.3611679 0.327300971,17.3535766 0.327300971,17.3459854 C0.31968932,17.2928467 0.315883495,17.2435036 0.308271845,17.190365 C0.281631068,16.9778102 0.262601942,16.7652555 0.243572816,16.5489051 C0.23976699,16.4767883 0.23215534,16.4084672 0.228349515,16.3363504 C0.228349515,16.3287591 0.228349515,16.3173723 0.224543689,16.309781 C0.224543689,16.2908029 0.220737864,16.2756204 0.220737864,16.2566423 C0.216932039,16.1807299 0.213126214,16.1010219 0.209320388,16.0251095 C0.205514563,15.8884672 0.197902913,15.7480292 0.197902913,15.6075912 C0.194097087,15.3494891 0.197902913,15.0913869 0.205514563,14.8294891 C0.209320388,14.7194161 0.213126214,14.6131387 0.220737864,14.5030657 C0.228349515,14.370219 0.235961165,14.2411679 0.247378641,14.1083212 C0.254990291,14.0058394 0.266407767,13.899562 0.277825243,13.7970803 C0.304466019,13.5427737 0.338718447,13.2922628 0.376776699,13.0379562 C0.395805825,12.9164964 0.414834951,12.7950365 0.437669903,12.6735766 C0.449087379,12.6128467 0.460504854,12.5521168 0.47192233,12.4913869 C0.723106796,11.2046715 1.12652427,9.98627737 1.66695146,8.85518248 C2.26446602,7.59883212 3.02563107,6.4449635 3.92,5.42014599 C3.95805825,5.37839416 3.99231068,5.33664234 4.03036893,5.29489051 C4.06842718,5.25313869 4.10648544,5.21138686 4.14454369,5.16963504 C4.15976699,5.15065693 4.17879612,5.13167883 4.19401942,5.11270073 C4.2663301,5.0329927 4.33864078,4.95328467 4.41475728,4.87737226 C4.47565049,4.81664234 4.53273786,4.75211679 4.59743689,4.69138686 C4.61646602,4.67240876 4.63168932,4.65343066 4.65071845,4.63824818 C4.66213592,4.62686131 4.6735534,4.61547445 4.68497087,4.60408759 C4.72302913,4.56613139 4.76108738,4.52817518 4.79914563,4.4940146 C4.86003883,4.43328467 4.92093204,4.37635036 4.98182524,4.31941606 C5.01607767,4.28525547 5.05413592,4.25109489 5.08838835,4.22072993 C5.19495146,4.1220438 5.30151456,4.02715328 5.40807767,3.93226277 C5.43852427,3.90189781 5.4727767,3.87532847 5.5032233,3.84875912 C5.70493204,3.6779562 5.9104466,3.51094891 6.11976699,3.35153285 C6.62213592,2.96437956 7.15114563,2.60759124 7.69918447,2.2849635 C7.86283495,2.19007299 8.02648544,2.09518248 8.19394175,2.00788321 C8.25102913,1.97751825 8.30431068,1.94715328 8.36139806,1.92058394 C8.41848544,1.89021898 8.47176699,1.86364964 8.52885437,1.83328467 C8.58594175,1.80291971 8.64302913,1.77635036 8.7001165,1.74978102 C8.70772816,1.7459854 8.71533981,1.74218978 8.72295146,1.73839416 C8.82951456,1.68525547 8.93607767,1.63591241 9.04264078,1.58656934 C9.27479612,1.48029197 9.50695146,1.37781022 9.74671845,1.28291971 C9.79238835,1.26394161 9.83425243,1.24875912 9.87992233,1.22978102 C9.95223301,1.20321168 10.0245437,1.17284672 10.0968544,1.14627737 C10.1577476,1.12350365 10.214835,1.10072993 10.2757282,1.08175182 C10.3366214,1.0589781 10.3937087,1.04 10.4546019,1.01722628 C10.5231068,0.994452555 10.5916117,0.971678832 10.6601165,0.948905109 C10.6639223,0.948905109 10.6639223,0.948905109 10.6677282,0.945109489 C10.6829515,0.941313869 10.7019806,0.933722628 10.7172039,0.929927007 C10.7286214,0.926131387 10.7438447,0.922335766 10.7552621,0.918540146 C10.759068,0.918540146 10.7628738,0.914744526 10.7666796,0.914744526 C10.800932,0.903357664 10.8351845,0.891970803 10.8694369,0.880583942 C10.9189126,0.86540146 10.9683883,0.850218978 11.0178641,0.835036496 C11.0368932,0.827445255 11.0559223,0.823649635 11.0749515,0.816058394 C11.0749515,0.816058394 11.0787573,0.816058394 11.0787573,0.816058394 C11.1130097,0.804671533 11.1472621,0.797080292 11.1815146,0.785693431 C11.215767,0.774306569 11.2500194,0.766715328 11.2842718,0.755328467 C11.3565825,0.736350365 11.4250874,0.717372263 11.4973981,0.698394161 C11.5544854,0.683211679 11.6153786,0.668029197 11.672466,0.652846715 C11.6762718,0.652846715 11.6800777,0.652846715 11.6838835,0.649051095 C11.76,0.630072993 11.8361165,0.611094891 11.912233,0.592116788 C11.976932,0.576934307 12.0454369,0.561751825 12.1101359,0.546569343 C12.1710291,0.531386861 12.2357282,0.52 12.2966214,0.504817518 C12.3004272,0.504817518 12.304233,0.501021898 12.3080388,0.501021898 C12.3765437,0.485839416 12.4488544,0.470656934 12.5173592,0.459270073 C12.5287767,0.455474453 12.5401942,0.455474453 12.5516117,0.451678832 C12.6163107,0.440291971 12.6810097,0.428905109 12.7457087,0.417518248 C12.7457087,0.417518248 12.7457087,0.417518248 12.7457087,0.417518248 C12.8104078,0.406131387 12.8751068,0.394744526 12.9398058,0.383357664 C12.9816699,0.375766423 13.023534,0.368175182 13.0653981,0.364379562 C13.1072621,0.356788321 13.1491262,0.352992701 13.1909903,0.34540146 C13.2328544,0.337810219 13.2747184,0.334014599 13.3165825,0.326423358 C13.3965049,0.315036496 13.480233,0.303649635 13.5639612,0.296058394 C13.567767,0.296058394 13.5715728,0.296058394 13.5753786,0.296058394 C13.5753786,0.296058394 13.5753786,0.296058394 13.5753786,0.296058394 L13.5753786,0.296058394 C13.5753786,0.296058394 13.5753786,0.296058394 13.5753786,0.296058394 C13.5829903,0.296058394 13.5944078,0.292262774 13.6020194,0.292262774 C13.6096311,0.292262774 13.6210485,0.288467153 13.6286602,0.288467153 C13.6857476,0.280875912 13.7466408,0.277080292 13.8037282,0.269489051 C13.8189515,0.269489051 13.8341748,0.265693431 13.8532039,0.265693431 C13.8608155,0.265693431 13.8684272,0.265693431 13.8760388,0.26189781 C13.8798447,0.26189781 13.8836505,0.26189781 13.8874563,0.26189781 C13.9559612,0.254306569 14.024466,0.246715328 14.0929709,0.242919708 C14.1690874,0.235328467 14.2452039,0.231532847 14.3251262,0.223941606 C14.3441553,0.223941606 14.3631845,0.220145985 14.3822136,0.220145985 C14.4621359,0.216350365 14.5382524,0.208759124 14.6181748,0.204963504 C14.6980971,0.201167883 14.7742136,0.197372263 14.8541359,0.193576642 C14.9568932,0.189781022 15.0634563,0.185985401 15.1662136,0.185985401 C15.2499417,0.185985401 15.3336699,0.182189781 15.4173981,0.182189781 C15.7256699,0.182189781 16.0301359,0.189781022 16.3346019,0.208759124 C16.4373592,0.216350365 16.5363107,0.220145985 16.6352621,0.231532847 C16.7151845,0.239124088 16.7951068,0.246715328 16.8750291,0.254306569 C16.9359223,0.26189781 17.0006214,0.265693431 17.0615146,0.273284672 C17.1109903,0.277080292 17.160466,0.284671533 17.2061359,0.288467153 L17.2099417,0.288467153 C17.5714951,0.330218978 17.9368544,0.387153285 18.3022136,0.459270073 C19.1090485,0.614890511 19.8892427,0.831240876 20.6389903,1.10072993 C20.7874175,1.15386861 20.9358447,1.21080292 21.080466,1.26773723 C21.080466,1.26773723 21.0842718,1.26773723 21.0842718,1.26773723 C21.1375534,1.29051095 21.1946408,1.31328467 21.2479223,1.33605839 C21.2859806,1.35124088 21.3240388,1.36642336 21.3620971,1.38540146 C21.4039612,1.40058394 21.4458252,1.41956204 21.4838835,1.43854015 C21.5485825,1.46890511 21.6170874,1.49547445 21.6817864,1.52583942 C21.7502913,1.55620438 21.8187961,1.58656934 21.887301,1.62072993 C21.8911068,1.62072993 21.8911068,1.62072993 21.8949126,1.62452555 C21.9253592,1.63970803 21.952,1.65109489 21.9824466,1.66627737 L22.0090874,1.68145985 C22.0281165,1.68905109 22.0471456,1.70043796 22.0699806,1.71182482 C22.0966214,1.72321168 22.1194563,1.73459854 22.1460971,1.74978102 C22.1499029,1.75357664 22.1575146,1.75357664 22.1613204,1.75737226 C22.1803495,1.76875912 22.1993786,1.77635036 22.2222136,1.78773723 C22.2260194,1.78773723 22.2298252,1.79153285 22.2298252,1.79153285 C22.2374369,1.79532847 22.2450485,1.79912409 22.2526602,1.80291971 C22.3173592,1.83708029 22.3858641,1.87124088 22.4505631,1.90160584 C22.4581748,1.90540146 22.4657864,1.90919708 22.4733981,1.9129927 C22.5152621,1.93576642 22.5533204,1.95474453 22.5951845,1.97751825 C22.6104078,1.98510949 22.6256311,1.99270073 22.6408544,2.00029197 C22.6674951,2.01547445 22.6903301,2.02686131 22.7169709,2.0420438 C22.7283883,2.04963504 22.7436117,2.05343066 22.7550291,2.0610219 C22.8121165,2.09138686 22.8653981,2.12175182 22.9186796,2.15211679 C22.9567379,2.17489051 22.9947961,2.19766423 23.0366602,2.22043796 C23.0671068,2.23941606 23.0975534,2.25459854 23.1318058,2.27357664 C23.1546408,2.2849635 23.1774757,2.30014599 23.2003107,2.31153285 C23.5276117,2.50510949 23.847301,2.71007299 24.1593786,2.93021898 C24.2126602,2.96437956 24.2621359,3.00233577 24.3154175,3.04029197 C24.3572816,3.07065693 24.4029515,3.1010219 24.4448155,3.13518248 C24.5551845,3.21489051 24.6617476,3.29839416 24.7721165,3.38189781 C24.8063689,3.40846715 24.8444272,3.43883212 24.8786796,3.46540146 C25.088,3.63240876 25.2973204,3.80321168 25.4990291,3.98160584 C25.9747573,4.40291971 26.4276505,4.85080292 26.8462913,5.32525547 C26.9109903,5.39737226 26.9756893,5.47328467 27.0403883,5.54919708 C27.0594175,5.56817518 27.0746408,5.59094891 27.0936699,5.61372263 C27.1431456,5.67445255 27.1926214,5.73138686 27.2420971,5.79211679 C27.264932,5.81868613 27.2839612,5.84145985 27.3029903,5.8680292 C27.3638835,5.94014599 27.4209709,6.01226277 27.4780583,6.08817518 C27.5465631,6.17547445 27.6112621,6.26277372 27.6759612,6.35007299 C27.6759612,6.35007299 27.6759612,6.35386861 27.679767,6.35386861 C27.6987961,6.38043796 27.7178252,6.4070073 27.7368544,6.43357664 C27.7482718,6.44875912 27.7596893,6.46773723 27.7711068,6.48291971 C27.7711068,6.48291971 27.7711068,6.48671533 27.7749126,6.48671533 C27.8015534,6.52467153 27.8281942,6.56262774 27.8586408,6.60437956 C27.8624466,6.60817518 27.8662524,6.61576642 27.8700583,6.61956204 C27.8814757,6.63474453 27.8890874,6.64613139 27.896699,6.66131387 C27.9499806,6.73722628 28.0032621,6.81693431 28.0565437,6.89284672 C28.0755728,6.91941606 28.0946019,6.94978102 28.1136311,6.97635036 C28.1212427,6.98773723 28.1288544,6.99912409 28.136466,7.01051095 C28.1440777,7.02189781 28.1516893,7.03328467 28.159301,7.04467153 C28.1859417,7.08642336 28.2125825,7.12437956 28.2392233,7.16613139 C28.2925049,7.24583942 28.3419806,7.32554745 28.3914563,7.40525547 C28.399068,7.41664234 28.4066796,7.43182482 28.4180971,7.44321168 C28.4180971,7.4470073 28.4219029,7.4470073 28.4219029,7.45080292 C28.4561553,7.50394161 28.4866019,7.55708029 28.5208544,7.6140146 C28.5551068,7.66715328 28.5855534,7.72408759 28.616,7.77722628 C28.8291262,8.14540146 29.0270291,8.52116788 29.2097087,8.90832117 C29.2439612,8.98423358 29.2820194,9.06394161 29.3162718,9.13985401 C29.5027573,9.55357664 29.6740194,9.97868613 29.8224466,10.4113869 C30.2677282,11.6943066 30.5455534,13.0455474 30.6292816,14.4347445 C30.751068,15.6417518 30.6787573,16.8753285 30.4504078,18.1127007 Z" id="Path" fill="#DD2A26"></path>
                <path d="M115.358369,59.0674453 C115.358369,59.1851095 115.354563,59.3027737 115.346951,59.420438 C115.346951,59.4659854 115.343146,59.5153285 115.33934,59.5608759 C115.335534,59.689927 115.324117,59.8151825 115.308893,59.940438 L115.297476,60.020146 C115.282252,60.1529927 115.263223,60.2858394 115.236583,60.4186861 C115.213748,60.5553285 115.187107,60.6919708 115.152854,60.8248175 C115.152854,60.84 115.149049,60.8513869 115.145243,60.8665693 C115.141437,60.8779562 115.141437,60.8855474 115.137631,60.8969343 C115.118602,60.9728467 115.099573,61.0487591 115.080544,61.1208759 C115.069126,61.1664234 115.053903,61.2119708 115.03868,61.2575182 C115.023456,61.3258394 115.000621,61.390365 114.981592,61.4548905 C114.951146,61.5535766 114.916893,61.6484672 114.878835,61.7471533 C114.836971,61.8686131 114.787495,61.990073 114.738019,62.1115328 C114.684738,62.2329927 114.631456,62.3544526 114.574369,62.4759124 C114.517282,62.5935766 114.456388,62.7112409 114.391689,62.8289051 C114.32699,62.9465693 114.262291,63.0642336 114.189981,63.1781022 C114.121476,63.2919708 114.045359,63.4058394 113.969243,63.5159124 C113.893126,63.629781 113.813204,63.739854 113.729476,63.8461314 C113.649553,63.9562044 113.562019,64.0624818 113.47068,64.1687591 C113.272777,64.4040876 113.05965,64.6318248 112.827495,64.8443796 C112.755184,64.9127007 112.682874,64.9772263 112.610563,65.0379562 C112.587728,65.0645255 112.564893,65.0835036 112.542058,65.0986861 C112.469748,65.1632117 112.397437,65.2239416 112.32132,65.2808759 C112.283262,65.3112409 112.245204,65.3416058 112.207146,65.3719708 C112.108194,65.4478832 112.005437,65.5237956 111.90268,65.5959124 C111.90268,65.599708 111.898874,65.599708 111.898874,65.599708 C111.780893,65.6832117 111.659107,65.7629197 111.533515,65.8426277 C111.407922,65.9223358 111.278524,66.0020438 111.14532,66.0741606 C111.14532,66.0779562 111.141515,66.0779562 111.141515,66.0779562 C111.02734,66.1386861 110.913165,66.1994161 110.795184,66.260146 C110.783767,66.2639416 110.776155,66.2715328 110.764738,66.2753285 C110.741903,66.2905109 110.715262,66.3018978 110.692427,66.3132847 C110.578252,66.370219 110.460272,66.4233577 110.342291,66.4727007 C110.31565,66.4840876 110.292816,66.4954745 110.266175,66.5068613 C110.140583,66.5637956 110.007379,66.6169343 109.874175,66.670073 C109.855146,66.6738686 109.839922,66.6814599 109.820893,66.6890511 C109.687689,66.7383942 109.55068,66.7839416 109.409864,66.8294891 C109.253825,66.8826277 109.093981,66.9319708 108.93033,66.9737226 C108.926524,66.9737226 108.926524,66.9775182 108.922718,66.9775182 C108.762874,67.0192701 108.599223,67.0610219 108.435573,67.0951825 C108.264311,67.1331387 108.093049,67.1672993 107.917981,67.1976642 C107.769553,67.2242336 107.61732,67.2508029 107.465087,67.269781 C107.457476,67.269781 107.446058,67.2735766 107.438447,67.2735766 C107.377553,67.2849635 107.320466,67.2887591 107.259573,67.2925547 C107.126369,67.3115328 106.989359,67.3267153 106.848544,67.3381022 L106.829515,67.3381022 C106.662058,67.3532847 106.494602,67.3646715 106.32334,67.3722628 C106.296699,67.3722628 106.270058,67.3760584 106.243417,67.3760584 C106.056932,67.3836496 105.870447,67.3874453 105.680155,67.3874453 C105.505087,67.3874453 105.333825,67.3836496 105.162563,67.3760584 C105.097864,67.3760584 105.033165,67.3722628 104.968466,67.3684672 C104.820039,67.3646715 104.675417,67.3532847 104.530796,67.3418978 C104.473709,67.3381022 104.412816,67.3343066 104.355728,67.3267153 C104.249165,67.3191241 104.146408,67.3077372 104.04365,67.2963504 C103.956117,67.2887591 103.868583,67.2773723 103.781049,67.2659854 C103.65165,67.2470073 103.522252,67.2280292 103.39666,67.2052555 C103.297709,67.190073 103.202563,67.1748905 103.107417,67.1521168 C103.084583,67.1483212 103.057942,67.1445255 103.035107,67.1407299 C103.023689,67.1369343 103.012272,67.1369343 103.000854,67.1331387 C102.943767,67.1255474 102.88668,67.110365 102.829592,67.0989781 C102.772505,67.0875912 102.719223,67.0724088 102.662136,67.0610219 C102.627883,67.0534307 102.593631,67.0458394 102.563184,67.0382482 C102.559379,67.0382482 102.551767,67.0344526 102.547961,67.0344526 L102.544155,67.0344526 C102.490874,67.0192701 102.445204,67.0078832 102.395728,66.9964964 C102.346252,66.9851095 102.296777,66.9737226 102.247301,66.9585401 L102.243495,66.9585401 C102.12932,66.9281752 102.015146,66.8940146 101.900971,66.859854 C101.786796,66.8256934 101.676427,66.7915328 101.566058,66.7535766 C101.508971,66.7383942 101.455689,66.7156204 101.402408,66.6966423 C101.34532,66.6776642 101.292039,66.6586861 101.238757,66.639708 C101.021825,66.56 100.812505,66.4727007 100.60699,66.3816058 C100.504233,66.3360584 100.405282,66.2905109 100.30633,66.2411679 C100.294913,66.2335766 100.279689,66.229781 100.268272,66.2221898 C100.192155,66.1880292 100.119845,66.150073 100.047534,66.1121168 C100.028505,66.1007299 100.013282,66.0931387 99.9942524,66.0817518 C99.9561942,66.0627737 99.9181359,66.04 99.8800777,66.0210219 C99.8420194,65.9982482 99.8039612,65.9792701 99.7659029,65.9564964 C99.7620971,65.9564964 99.7544854,65.9527007 99.7506796,65.9489051 C99.7392621,65.9413139 99.7278447,65.9375182 99.7164272,65.929927 C99.7088155,65.9261314 99.6973981,65.9185401 99.6897864,65.9147445 C99.5261359,65.8236496 99.3700971,65.7249635 99.2178641,65.6224818 C99.1912233,65.6072993 99.1683883,65.5883212 99.1417476,65.5693431 C99.0199612,65.489635 98.9019806,65.409927 98.7878058,65.3226277 C98.6888544,65.2505109 98.5899029,65.1745985 98.4947573,65.0948905 C98.4414757,65.0531387 98.3958058,65.0151825 98.3463301,64.9734307 C98.2968544,64.9316788 98.2511845,64.889927 98.2017087,64.8481752 C98.1370097,64.7950365 98.0761165,64.7381022 98.0114175,64.6773723 C97.8744078,64.5521168 97.7450097,64.4230657 97.6232233,64.2940146 C97.5547184,64.2256934 97.4938252,64.1611679 97.432932,64.0928467 L97.4291262,64.0890511 C97.368233,64.0207299 97.3073398,63.9562044 97.2540583,63.8840876 C97.2464466,63.8764964 97.238835,63.8651095 97.2312233,63.8575182 C97.1436893,63.7588321 97.063767,63.6563504 96.9838447,63.5538686 C96.9343689,63.4855474 96.8848932,63.4210219 96.8354175,63.3527007 C96.6184854,63.0528467 96.4205825,62.7454015 96.2455146,62.430365 C96.1846214,62.320292 96.127534,62.210219 96.0704466,62.100146 C95.9448544,61.8458394 95.8306796,61.5877372 95.7241165,61.3258394 L95.6556117,61.1322628 C95.6327767,61.0677372 95.6099417,60.9994161 95.5871068,60.9348905 C95.5414369,60.8058394 95.4995728,60.6729927 95.4615146,60.540146 C95.3130874,60.0315328 95.2141359,59.5153285 95.1570485,58.9991241 L95.1227961,58.6689051 L100.039922,57.2721168 L100.081786,57.7427737 C100.09701,57.8945985 100.116039,58.0464234 100.146485,58.2020438 C100.16932,58.3348905 100.199767,58.4677372 100.234019,58.6043796 C100.264466,58.7334307 100.302524,58.8586861 100.344388,58.9877372 C100.348194,58.9991241 100.352,59.0143066 100.355806,59.0256934 C100.386252,59.1205839 100.424311,59.2192701 100.458563,59.3141606 C100.466175,59.3255474 100.469981,59.3369343 100.477592,59.3521168 C100.51565,59.4583942 100.56132,59.5608759 100.610796,59.6633577 C100.641243,59.7316788 100.675495,59.8 100.713553,59.8683212 C100.732583,59.910073 100.755417,59.9480292 100.778252,59.989781 C100.782058,59.9935766 100.782058,59.9973723 100.785864,60.0011679 C100.816311,60.0581022 100.850563,60.1150365 100.884816,60.1681752 C100.968544,60.3048175 101.056078,60.4376642 101.155029,60.5667153 C101.174058,60.5894891 101.193087,60.6160584 101.212117,60.6388321 C101.22734,60.6616058 101.250175,60.6881752 101.269204,60.7109489 C101.311068,60.7678832 101.360544,60.8248175 101.413825,60.8817518 C101.489942,60.9690511 101.569864,61.0563504 101.657398,61.139854 C101.699262,61.1816058 101.741126,61.2233577 101.786796,61.2613139 C101.832466,61.3030657 101.878136,61.3448175 101.923806,61.3789781 C102.034175,61.4738686 102.152155,61.5649635 102.273942,61.6484672 C102.338641,61.6978102 102.407146,61.739562 102.47565,61.7813139 C102.506097,61.8040876 102.536544,61.8230657 102.56699,61.8382482 C102.597437,61.8572263 102.627883,61.8724088 102.65833,61.8913869 C102.665942,61.8951825 102.669748,61.8989781 102.677359,61.9027737 C102.707806,61.9217518 102.738252,61.9369343 102.772505,61.9559124 C102.84101,61.9938686 102.909515,62.0280292 102.981825,62.0583942 C103.031301,62.0849635 103.084583,62.1077372 103.137864,62.1305109 C103.213981,62.1646715 103.290097,62.1988321 103.370019,62.2254015 C103.373825,62.2291971 103.377631,62.2291971 103.385243,62.2329927 C103.39666,62.2367883 103.404272,62.2405839 103.415689,62.2443796 C103.476583,62.2671533 103.545087,62.289927 103.609786,62.3089051 C103.674485,62.3316788 103.74299,62.3544526 103.815301,62.3734307 C103.883806,62.3962044 103.956117,62.4151825 104.028427,62.430365 C104.233942,62.479708 104.447068,62.5214599 104.671612,62.5518248 C104.762951,62.5670073 104.858097,62.5783942 104.953243,62.5859854 C105.185398,62.6087591 105.428971,62.620146 105.680155,62.620146 C108.382291,62.620146 110.056854,61.3865693 110.056854,59.4014599 C110.056854,57.8490511 108.858019,56.6686131 106.856155,56.2435036 L104.683029,55.7880292 L103.160699,55.4691971 C98.7954175,54.5810219 96.192233,51.6963504 96.192233,47.7451095 C96.192233,43.1144526 100.363417,39.3491971 105.497476,39.3491971 C113.048233,39.3491971 114.71899,44.7010219 115.053903,46.3445255 L115.126214,46.689927 L110.357515,48.1854015 L110.285204,47.7337226 C110.01499,46.0332847 108.606835,44.0481752 105.531728,44.0481752 C103.225398,44.0481752 101.417631,45.5246715 101.417631,47.4148905 C101.417631,48.9445255 102.395728,49.999708 104.176854,50.3868613 L107.940816,51.1573723 C108.085437,51.1877372 108.230058,51.2181022 108.370874,51.2522628 C108.511689,51.2826277 108.652505,51.3167883 108.789515,51.3547445 C108.903689,51.3851095 109.014058,51.4154745 109.124427,51.449635 C109.170097,51.4648175 109.215767,51.48 109.261437,51.4913869 C109.371806,51.5293431 109.482175,51.5635036 109.592544,51.6014599 C109.695301,51.6356204 109.798058,51.669781 109.89701,51.7077372 C109.973126,51.7381022 110.049243,51.7684672 110.125359,51.7988321 C110.296621,51.8671533 110.467883,51.9392701 110.631534,52.0151825 C110.745709,52.0683212 110.859883,52.1214599 110.970252,52.1783942 C111.034951,52.2087591 111.09965,52.2429197 111.160544,52.2770803 C111.286136,52.3416058 111.407922,52.409927 111.529709,52.4820438 C111.602019,52.5275912 111.678136,52.5693431 111.750447,52.6148905 C111.822757,52.6566423 111.891262,52.7021898 111.959767,52.7515328 C112.013049,52.7856934 112.06633,52.819854 112.119612,52.8578102 C112.127223,52.8616058 112.134835,52.8691971 112.142447,52.8729927 C112.150058,52.8767883 112.153864,52.8805839 112.161476,52.8881752 C112.287068,52.9754745 112.408854,53.0665693 112.523029,53.1614599 C112.583922,53.2070073 112.644816,53.2563504 112.705709,53.3094891 C112.766602,53.3588321 112.827495,53.4081752 112.884583,53.4613139 C112.972117,53.5372263 113.05965,53.6169343 113.143379,53.700438 C113.227107,53.7839416 113.310835,53.8674453 113.390757,53.9509489 C113.485903,54.0534307 113.577243,54.159708 113.664777,54.2621898 C113.72567,54.3343066 113.786563,54.4064234 113.839845,54.4785401 C113.912155,54.569635 113.98066,54.6607299 114.045359,54.7556204 C114.110058,54.8505109 114.174757,54.9454015 114.23565,55.040292 C114.296544,55.1351825 114.353631,55.230073 114.406913,55.3287591 C114.528699,55.5413139 114.639068,55.7576642 114.738019,55.9854015 C114.776078,56.0764964 114.814136,56.1675912 114.852194,56.2624818 C114.890252,56.3573723 114.924505,56.4522628 114.954951,56.5471533 C114.989204,56.649635 115.01965,56.7483212 115.050097,56.8508029 C115.080544,56.9532847 115.11099,57.0519708 115.133825,57.1582482 C115.141437,57.2037956 115.152854,57.2455474 115.164272,57.2872993 C115.171883,57.3328467 115.183301,57.3783942 115.190913,57.420146 C115.206136,57.4808759 115.217553,57.5454015 115.228971,57.609927 C115.251806,57.7237956 115.267029,57.8376642 115.286058,57.9515328 C115.297476,58.0426277 115.308893,58.1337226 115.316505,58.2248175 C115.324117,58.2817518 115.327922,58.3348905 115.331728,58.3880292 C115.331728,58.3994161 115.335534,58.4145985 115.335534,58.4259854 C115.335534,58.4449635 115.33934,58.4639416 115.33934,58.4829197 C115.343146,58.5626277 115.346951,58.6461314 115.350757,58.7258394 C115.354563,58.839708 115.358369,58.9535766 115.358369,59.0674453 Z" id="Path" fill="#000000"></path>
                <path d="M131.346641,62.3127007 L131.346641,66.3208759 C131.053592,66.4461314 130.132583,66.7839416 128.370485,66.7839416 C124.602718,66.7839416 122.254524,64.5255474 122.254524,60.7223358 L122.254524,50.4855474 L118.482951,50.4855474 L118.482951,46.1813139 L119.533359,46.1813139 C119.700816,46.1813139 119.86066,46.1737226 120.012893,46.1585401 C120.069981,46.1509489 120.123262,46.1433577 120.18035,46.1357664 C120.248854,46.1281752 120.313553,46.1129927 120.378252,46.1016058 L120.382058,46.0978102 C120.484816,46.0826277 120.583767,46.0560584 120.678913,46.0256934 C120.701748,46.0181022 120.724583,46.0143066 120.743612,46.0067153 C120.834951,45.980146 120.922485,45.9459854 121.006214,45.9080292 C121.093748,45.8738686 121.17367,45.8321168 121.253592,45.790365 C121.284039,45.7751825 121.318291,45.7562044 121.348738,45.7334307 C121.394408,45.7068613 121.440078,45.680292 121.485748,45.6461314 C121.516194,45.6271533 121.546641,45.6043796 121.573282,45.5854015 C121.622757,45.5474453 121.668427,45.5094891 121.714097,45.4677372 C121.744544,45.4449635 121.771184,45.4183942 121.797825,45.3918248 C121.843495,45.3462774 121.889165,45.3007299 121.931029,45.2513869 C121.965282,45.2172263 121.995728,45.1830657 122.018563,45.1451095 C122.060427,45.099562 122.09468,45.050219 122.125126,45.0008759 C122.182214,44.9211679 122.231689,44.8414599 122.273553,44.7579562 L122.277359,44.7579562 C122.315417,44.6858394 122.353476,44.6137226 122.383922,44.5378102 C122.414369,44.4656934 122.444816,44.3935766 122.46765,44.3176642 C122.482874,44.279708 122.494291,44.2417518 122.505709,44.2037956 C122.53235,44.1278832 122.551379,44.0481752 122.570408,43.9684672 C122.593243,43.869781 122.612272,43.7672993 122.627495,43.6648175 C122.627495,43.6610219 122.627495,43.6610219 122.627495,43.6572263 C122.642718,43.569927 122.65033,43.4788321 122.657942,43.3839416 C122.669359,43.2624818 122.673165,43.1372263 122.673165,43.0081752 L122.673165,39.5769343 L127.072699,39.5769343 L127.072699,46.1813139 L131.304777,46.1813139 L131.304777,50.4855474 L127.072699,50.4855474 L127.072699,59.9290511 C127.072699,61.7281752 127.868117,62.479708 129.672078,62.479708 C130.341903,62.479708 131.13732,62.3544526 131.346641,62.3127007 Z" id="Path" fill="#000000"></path>
                <g transform="translate(2.664078, 92.233577)" fill="#36383D">
                    <polygon id="Path" points="1.08466019 4.68 4.91332039 4.68 4.91332039 5.53021898 1.08466019 5.53021898 1.08466019 8.78306569 5.56031068 8.78306569 5.56031068 9.63328467 0.137009709 9.63328467 0.137009709 0.728759124 5.56031068 0.728759124 5.56031068 1.5789781 1.08466019 1.5789781"></polygon>
                    <path d="M9.56023301,3.09343066 L10.9303301,3.09343066 L10.9303301,3.79182482 L9.56023301,3.79182482 L9.56023301,9.63708029 L8.66586408,9.63708029 L8.66586408,3.79182482 L7.83619417,3.79182482 L7.83619417,3.09343066 L8.66586408,3.09343066 L8.66586408,2.35708029 C8.66586408,1.85985401 8.80667961,1.46131387 9.08831068,1.16905109 C9.36994175,0.876788321 9.7543301,0.728759124 10.2452816,0.728759124 L10.9303301,0.728759124 L10.9303301,1.42715328 L10.3860971,1.42715328 C9.83425243,1.42715328 9.55642718,1.72321168 9.55642718,2.31912409 L9.55642718,3.09343066 L9.56023301,3.09343066 Z" id="Path"></path>
                    <path d="M15.048233,3.09343066 L16.4183301,3.09343066 L16.4183301,3.79182482 L15.048233,3.79182482 L15.048233,9.63708029 L14.1538641,9.63708029 L14.1538641,3.79182482 L13.3241942,3.79182482 L13.3241942,3.09343066 L14.1538641,3.09343066 L14.1538641,2.35708029 C14.1538641,1.85985401 14.2946796,1.46131387 14.5763107,1.16905109 C14.8579417,0.876788321 15.2423301,0.728759124 15.7332816,0.728759124 L16.4183301,0.728759124 L16.4183301,1.42715328 L15.8740971,1.42715328 C15.3222524,1.42715328 15.0444272,1.72321168 15.0444272,2.31912409 L15.0444272,3.09343066 L15.048233,3.09343066 Z" id="Path"></path>
                    <path d="M19.5619417,6.92321168 C19.5619417,7.66335766 19.7141748,8.18335766 20.014835,8.47941606 C20.3154951,8.77547445 20.7341359,8.92350365 21.2707573,8.92350365 C21.735068,8.92350365 22.1004272,8.81343066 22.3630291,8.58948905 C22.6256311,8.36554745 22.758835,8.05430657 22.758835,7.65956204 L22.758835,7.62160584 L23.6113398,7.62160584 L23.6113398,7.68613139 C23.6113398,8.29722628 23.3982136,8.78686131 22.9719612,9.15883212 C22.5457087,9.53080292 21.9558058,9.7129927 21.2060583,9.7129927 C20.4372816,9.7129927 19.8245437,9.48525547 19.3678447,9.02978102 C18.9111456,8.57430657 18.6827961,7.86452555 18.6827961,6.90043796 L18.6827961,5.76554745 C18.6827961,4.8280292 18.9111456,4.13343066 19.3678447,3.68175182 C19.8245437,3.23007299 20.4296699,3.00233577 21.1794175,3.00233577 C21.929165,3.00233577 22.5304854,3.23007299 22.9833786,3.68175182 C23.4362718,4.13343066 23.6608155,4.8280292 23.6608155,5.76554745 L23.6608155,6.53985401 L19.5619417,6.53985401 L19.5619417,6.92321168 Z M19.5619417,5.7389781 L19.5619417,5.87941606 L22.7816699,5.87941606 L22.7816699,5.64788321 C22.7816699,4.96846715 22.6408544,4.49021898 22.3554175,4.21693431 C22.0699806,3.93985401 21.6779806,3.80321168 21.1794175,3.80321168 C20.688466,3.80321168 20.296466,3.94744526 20.0034175,4.23591241 C19.7103689,4.52058394 19.5619417,5.02160584 19.5619417,5.7389781 Z" id="Shape"></path>
                    <path d="M26.199301,7.02948905 L26.199301,5.68583942 C26.199301,4.75591241 26.4314563,4.07649635 26.8919612,3.64759124 C27.352466,3.21868613 27.9728155,3.00233577 28.7492039,3.00233577 C29.4989515,3.00233577 30.0926602,3.19970803 30.5265243,3.59445255 C30.9603883,3.98919708 31.1811262,4.52058394 31.1811262,5.1810219 L31.1811262,5.24554745 L30.3286214,5.24554745 L30.3286214,5.1810219 C30.3286214,4.74072993 30.1916117,4.40291971 29.9137864,4.16 C29.639767,3.92087591 29.2629903,3.79941606 28.7872621,3.79941606 C28.2506408,3.79941606 27.8358058,3.94364964 27.5313398,4.23211679 C27.2306796,4.52058394 27.0784466,5.02160584 27.0784466,5.73518248 L27.0784466,6.97255474 C27.0784466,7.69372263 27.2268738,8.20233577 27.5237282,8.4870073 C27.8205825,8.77547445 28.2392233,8.91970803 28.7720388,8.91970803 C29.2553786,8.91970803 29.6359612,8.79824818 29.9099806,8.55912409 C30.1878058,8.32 30.3248155,7.97839416 30.3248155,7.53810219 L30.3248155,7.47357664 L31.1773204,7.47357664 L31.1773204,7.52671533 C31.1773204,8.19094891 30.9565825,8.71854015 30.5189126,9.11328467 C30.0774369,9.5080292 29.4913398,9.70540146 28.7606214,9.70540146 C27.9766214,9.70540146 27.352466,9.49284672 26.8919612,9.06773723 C26.4314563,8.64642336 26.199301,7.9670073 26.199301,7.02948905 Z" id="Path"></path>
                    <path d="M35.3104466,7.97080292 C35.3104466,8.56291971 35.5920777,8.86277372 36.151534,8.86277372 L36.6691262,8.86277372 L36.6691262,9.63708029 L36.0107184,9.63708029 C35.5121553,9.63708029 35.1201553,9.49284672 34.8385243,9.20437956 C34.5568932,8.91591241 34.4198835,8.51737226 34.4198835,8.01255474 L34.4198835,3.79182482 L33.3961165,3.79182482 L33.3961165,3.09343066 L34.4198835,3.09343066 L34.4198835,1.5979562 L35.3142524,1.18423358 L35.3142524,3.09343066 L36.7909126,3.09343066 L36.7909126,3.79182482 L35.3142524,3.79182482 L35.3142524,7.97080292 L35.3104466,7.97080292 Z" id="Path"></path>
                    <path d="M40.4131262,0.861605839 L40.4131262,2.02306569 L39.4131262,2.02306569 L39.4131262,0.861605839 L40.4131262,0.861605839 Z M40.3845548,3.09343066 L40.3845548,9.63708029 L39.4416976,9.63708029 L39.4416976,3.09343066 L40.3845548,3.09343066 Z" id="Shape"></path>
                    <polygon id="Path" points="43.5386408 3.09343066 45.2474563 8.34656934 46.9562718 3.09343066 47.9001165 3.09343066 45.6356505 9.63708029 44.8478447 9.63708029 42.5833786 3.09343066"></polygon>
                    <path d="M50.7354563,6.92321168 C50.7354563,7.66335766 50.8876893,8.18335766 51.1883495,8.47941606 C51.4890097,8.77547445 51.9076505,8.92350365 52.4442718,8.92350365 C52.9085825,8.92350365 53.2739417,8.81343066 53.5365437,8.58948905 C53.7991456,8.36554745 53.9323495,8.05430657 53.9323495,7.65956204 L53.9323495,7.62160584 L54.7848544,7.62160584 L54.7848544,7.68613139 C54.7848544,8.29722628 54.5717282,8.78686131 54.1454757,9.15883212 C53.7192233,9.53080292 53.1293204,9.7129927 52.3795728,9.7129927 C51.6107961,9.7129927 50.9980583,9.48525547 50.5413592,9.02978102 C50.0846602,8.57430657 49.8563107,7.86452555 49.8563107,6.90043796 L49.8563107,5.76554745 C49.8563107,4.8280292 50.0846602,4.13343066 50.5413592,3.68175182 C50.9980583,3.23007299 51.6031845,3.00233577 52.352932,3.00233577 C53.1026796,3.00233577 53.704,3.23007299 54.1568932,3.68175182 C54.6097864,4.13343066 54.8343301,4.8280292 54.8343301,5.76554745 L54.8343301,6.53985401 L50.7316505,6.53985401 L50.7316505,6.92321168 L50.7354563,6.92321168 Z M50.7354563,5.7389781 L50.7354563,5.87941606 L53.9551845,5.87941606 L53.9551845,5.64788321 C53.9551845,4.96846715 53.8143689,4.49021898 53.528932,4.21693431 C53.2434951,3.93985401 52.8514951,3.80321168 52.352932,3.80321168 C51.8619806,3.80321168 51.4699806,3.94744526 51.176932,4.23591241 C50.8800777,4.52058394 50.7354563,5.02160584 50.7354563,5.7389781 Z" id="Shape"></path>
                    <polygon id="Path" points="64.4364272 0.0872992701 64.4364272 10.7074453 63.568699 10.7074453 63.568699 0.0872992701"></polygon>
                    <polygon id="Path" points="74.3886602 4.68 78.2173204 4.68 78.2173204 5.53021898 74.3886602 5.53021898 74.3886602 8.78306569 78.8643107 8.78306569 78.8643107 9.63328467 73.4410097 9.63328467 73.4410097 0.728759124 78.8643107 0.728759124 78.8643107 1.5789781 74.3886602 1.5789781"></polygon>
                    <path d="M82.864233,3.09343066 L84.2343301,3.09343066 L84.2343301,3.79182482 L82.864233,3.79182482 L82.864233,9.63708029 L81.9698641,9.63708029 L81.9698641,3.79182482 L81.1401942,3.79182482 L81.1401942,3.09343066 L81.9698641,3.09343066 L81.9698641,2.35708029 C81.9698641,1.85985401 82.1106796,1.46131387 82.3885049,1.16905109 C82.6701359,0.876788321 83.0545243,0.728759124 83.5454757,0.728759124 L84.2305243,0.728759124 L84.2305243,1.42715328 L83.6862913,1.42715328 C83.1344466,1.42715328 82.8566214,1.72321168 82.8566214,2.31912409 L82.8566214,3.09343066 L82.864233,3.09343066 Z" id="Path"></path>
                    <path d="M88.3484272,3.09343066 L89.7185243,3.09343066 L89.7185243,3.79182482 L88.3484272,3.79182482 L88.3484272,9.63708029 L87.4540583,9.63708029 L87.4540583,3.79182482 L86.6243883,3.79182482 L86.6243883,3.09343066 L87.4540583,3.09343066 L87.4540583,2.35708029 C87.4540583,1.85985401 87.5948738,1.46131387 87.8765049,1.16905109 C88.1581359,0.876788321 88.5425243,0.728759124 89.0334757,0.728759124 L89.7185243,0.728759124 L89.7185243,1.42715328 L89.1742913,1.42715328 C88.6224466,1.42715328 88.3446214,1.72321168 88.3446214,2.31912409 L88.3446214,3.09343066 L88.3484272,3.09343066 Z" id="Path"></path>
                    <path d="M93.2684272,0.861605839 L93.2684272,2.02306569 L92.2684272,2.02306569 L92.2684272,0.861605839 L93.2684272,0.861605839 Z M93.2439374,3.09343066 L93.2439374,9.63708029 L92.3010802,9.63708029 L92.3010802,3.09343066 L93.2439374,3.09343066 Z" id="Shape"></path>
                    <path d="M96.0209709,7.02948905 L96.0209709,5.68583942 C96.0209709,4.75591241 96.2531262,4.07649635 96.7136311,3.64759124 C97.1741359,3.21868613 97.7944854,3.00233577 98.5708738,3.00233577 C99.3206214,3.00233577 99.9143301,3.19970803 100.348194,3.59445255 C100.782058,3.98919708 101.002796,4.52058394 101.002796,5.1810219 L101.002796,5.24554745 L100.150291,5.24554745 L100.150291,5.1810219 C100.150291,4.74072993 100.013282,4.40291971 99.7354563,4.16 C99.4576311,3.92087591 99.0846602,3.79941606 98.608932,3.79941606 C98.0761165,3.79941606 97.6574757,3.94364964 97.3530097,4.23211679 C97.0523495,4.52058394 96.9001165,5.02160584 96.9001165,5.73518248 L96.9001165,6.97255474 C96.9001165,7.69372263 97.0485437,8.20233577 97.3453981,8.4870073 C97.6422524,8.77547445 98.0608932,8.91970803 98.5937087,8.91970803 C99.0770485,8.91970803 99.4576311,8.79824818 99.7316505,8.55912409 C100.009476,8.32 100.146485,7.97839416 100.146485,7.53810219 L100.146485,7.47357664 L100.99899,7.47357664 L100.99899,7.52671533 C100.99899,8.19094891 100.778252,8.71854015 100.340583,9.11328467 C99.8991068,9.5080292 99.3130097,9.70540146 98.5822913,9.70540146 C97.7982913,9.70540146 97.1741359,9.49284672 96.7136311,9.06773723 C96.2531262,8.64642336 96.0209709,7.9670073 96.0209709,7.02948905 Z" id="Path"></path>
                    <path d="M104.822913,0.861605839 L104.822913,2.02306569 L103.822913,2.02306569 L103.822913,0.861605839 L104.822913,0.861605839 Z M104.798423,3.09343066 L104.798423,9.63708029 L103.855566,9.63708029 L103.855566,3.09343066 L104.798423,3.09343066 Z" id="Shape"></path>
                    <path d="M108.458408,6.92321168 C108.458408,7.66335766 108.610641,8.18335766 108.911301,8.47941606 C109.211961,8.77547445 109.630602,8.92350365 110.167223,8.92350365 C110.631534,8.92350365 110.996893,8.81343066 111.259495,8.58948905 C111.522097,8.36554745 111.655301,8.05430657 111.655301,7.65956204 L111.655301,7.62160584 L112.507806,7.62160584 L112.507806,7.68613139 C112.507806,8.29722628 112.29468,8.78686131 111.868427,9.15883212 C111.442175,9.53080292 110.852272,9.7129927 110.102524,9.7129927 C109.333748,9.7129927 108.72101,9.48525547 108.264311,9.02978102 C107.807612,8.57430657 107.579262,7.86452555 107.579262,6.90043796 L107.579262,5.76554745 C107.579262,4.8280292 107.807612,4.13343066 108.264311,3.68175182 C108.72101,3.23007299 109.326136,3.00233577 110.075883,3.00233577 C110.825631,3.00233577 111.426951,3.23007299 111.879845,3.68175182 C112.332738,4.13343066 112.561087,4.8280292 112.561087,5.76554745 L112.561087,6.53985401 L108.458408,6.53985401 L108.458408,6.92321168 Z M108.458408,5.7389781 L108.458408,5.87941606 L111.678136,5.87941606 L111.678136,5.64788321 C111.678136,4.96846715 111.53732,4.49021898 111.251883,4.21693431 C110.966447,3.93985401 110.574447,3.80321168 110.075883,3.80321168 C109.584932,3.80321168 109.192932,3.94744526 108.899883,4.23591241 C108.603029,4.52058394 108.458408,5.02160584 108.458408,5.7389781 Z" id="Shape"></path>
                    <path d="M116.16901,3.09343066 L116.16901,3.89430657 C116.359301,3.6020438 116.60668,3.38189781 116.914951,3.23766423 C117.223223,3.09343066 117.565748,3.01751825 117.942524,3.01751825 C118.642796,3.01751825 119.179417,3.22248175 119.552388,3.63240876 C119.929165,4.04233577 120.11565,4.61167883 120.11565,5.34043796 L120.11565,9.63708029 L119.236505,9.63708029 L119.236505,5.46569343 C119.236505,4.92291971 119.103301,4.50919708 118.836893,4.22832117 C118.570485,3.94364964 118.197515,3.80321168 117.725592,3.80321168 C117.261282,3.80321168 116.888311,3.94744526 116.60668,4.23591241 C116.325049,4.52437956 116.184233,4.93430657 116.184233,5.46948905 L116.184233,9.63708029 L115.305087,9.63708029 L115.305087,3.09343066 L116.16901,3.09343066 Z" id="Path"></path>
                    <path d="M124.450485,7.97080292 C124.450485,8.56291971 124.732117,8.86277372 125.291573,8.86277372 L125.809165,8.86277372 L125.809165,9.63708029 L125.150757,9.63708029 C124.652194,9.63708029 124.260194,9.49284672 123.978563,9.20437956 C123.696932,8.91591241 123.559922,8.51737226 123.559922,8.01255474 L123.559922,3.79182482 L122.536155,3.79182482 L122.536155,3.09343066 L123.559922,3.09343066 L123.559922,1.5979562 L124.454291,1.18423358 L124.454291,3.09343066 L125.930951,3.09343066 L125.930951,3.79182482 L124.450485,3.79182482 L124.450485,7.97080292 Z" id="Path"></path>
                    <polygon id="Path" points="135.33134 0.0872992701 135.33134 10.7074453 134.463612 10.7074453 134.463612 0.0872992701"></polygon>
                    <path d="M145.138951,7.49255474 L144.389204,9.63328467 L143.392078,9.63328467 L146.638447,0.728759124 L147.426252,0.728759124 L150.672621,9.63328467 L149.675495,9.63328467 L148.925748,7.49255474 L145.138951,7.49255474 Z M147.030447,2.04583942 L145.412971,6.69167883 L148.65934,6.69167883 L147.030447,2.04583942 Z" id="Shape"></path>
                    <path d="M153.614524,3.09343066 L153.614524,3.89430657 C153.804816,3.6020438 154.052194,3.38189781 154.360466,3.23766423 C154.668738,3.09343066 155.011262,3.01751825 155.388039,3.01751825 C156.088311,3.01751825 156.624932,3.22248175 156.997903,3.63240876 C157.37468,4.04233577 157.561165,4.61167883 157.561165,5.34043796 L157.561165,9.63708029 L156.682019,9.63708029 L156.682019,5.46569343 C156.682019,4.92291971 156.548816,4.50919708 156.282408,4.22832117 C156.016,3.94364964 155.643029,3.80321168 155.171107,3.80321168 C154.706796,3.80321168 154.333825,3.94744526 154.052194,4.23591241 C153.770563,4.52437956 153.629748,4.93430657 153.629748,5.46948905 L153.629748,9.63708029 L152.750602,9.63708029 L152.750602,3.09343066 L153.614524,3.09343066 Z" id="Path"></path>
                    <path d="M162.520155,10.3430657 C162.364117,10.7833577 162.15099,11.0983942 161.880777,11.299562 C161.610563,11.5007299 161.24901,11.5956204 160.799922,11.5956204 L160.411728,11.5956204 L160.411728,10.7947445 L160.735223,10.7947445 C161.054913,10.7947445 161.29468,10.730219 161.454524,10.6011679 C161.614369,10.4721168 161.743767,10.259562 161.85033,9.96729927 L161.979728,9.56875912 L159.72668,3.08963504 L160.685748,3.08963504 L162.405981,8.28963504 L164.126214,3.08963504 L165.043417,3.08963504 L162.520155,10.3430657 Z" id="Path"></path>
                    <path d="M168.586641,7.97080292 C168.586641,8.56291971 168.868272,8.86277372 169.427728,8.86277372 L169.94532,8.86277372 L169.94532,9.63708029 L169.286913,9.63708029 C168.78835,9.63708029 168.39635,9.49284672 168.114718,9.20437956 C167.833087,8.91591241 167.696078,8.51737226 167.696078,8.01255474 L167.696078,3.79182482 L166.672311,3.79182482 L166.672311,3.09343066 L167.696078,3.09343066 L167.696078,1.5979562 L168.590447,1.18423358 L168.590447,3.09343066 L170.067107,3.09343066 L170.067107,3.79182482 L168.590447,3.79182482 L168.590447,7.97080292 L168.586641,7.97080292 Z" id="Path"></path>
                    <path d="M173.68932,0.861605839 L173.68932,2.02306569 L172.68932,2.02306569 L172.68932,0.861605839 L173.68932,0.861605839 Z M173.660749,3.09343066 L173.660749,9.63708029 L172.717892,9.63708029 L172.717892,3.09343066 L173.660749,3.09343066 Z" id="Shape"></path>
                    <path d="M177.515107,3.09343066 L177.515107,3.89430657 C177.705398,3.60963504 177.952777,3.39328467 178.261049,3.24145985 C178.565515,3.08963504 178.911845,3.01751825 179.288621,3.01751825 C179.737709,3.01751825 180.122097,3.11240876 180.441786,3.30218978 C180.761476,3.4919708 181.005049,3.76145985 181.180117,4.11445255 C181.610175,3.38189781 182.276194,3.01751825 183.174369,3.01751825 C183.874641,3.01751825 184.415068,3.22248175 184.803262,3.63240876 C185.191456,4.04233577 185.385553,4.61167883 185.385553,5.34043796 L185.385553,9.63708029 L184.506408,9.63708029 L184.506408,5.46569343 C184.506408,4.92291971 184.373204,4.50919708 184.110602,4.22832117 C183.848,3.94364964 183.478835,3.80321168 183.003107,3.80321168 C182.519767,3.80321168 182.14299,3.94744526 181.872777,4.23591241 C181.602563,4.52437956 181.465553,4.92291971 181.465553,5.42773723 L181.465553,9.63328467 L180.571184,9.63328467 L180.571184,5.46569343 C180.571184,4.92291971 180.437981,4.50919708 180.175379,4.22832117 C179.912777,3.94364964 179.543612,3.80321168 179.067883,3.80321168 C178.603573,3.80321168 178.230602,3.94744526 177.948971,4.23591241 C177.66734,4.52437956 177.526524,4.93430657 177.526524,5.46948905 L177.526524,9.63708029 L176.647379,9.63708029 L176.647379,3.09343066 L177.515107,3.09343066 Z" id="Path"></path>
                    <path d="M189.004893,6.92321168 C189.004893,7.66335766 189.157126,8.18335766 189.457786,8.47941606 C189.758447,8.77547445 190.177087,8.92350365 190.713709,8.92350365 C191.178019,8.92350365 191.543379,8.81343066 191.805981,8.58948905 C192.068583,8.36554745 192.201786,8.05430657 192.201786,7.65956204 L192.201786,7.62160584 L193.054291,7.62160584 L193.054291,7.68613139 C193.054291,8.29722628 192.841165,8.78686131 192.414913,9.15883212 C191.98866,9.53080292 191.398757,9.7129927 190.64901,9.7129927 C189.880233,9.7129927 189.267495,9.48525547 188.810796,9.02978102 C188.354097,8.57430657 188.125748,7.86452555 188.125748,6.90043796 L188.125748,5.76554745 C188.125748,4.8280292 188.354097,4.13343066 188.810796,3.68175182 C189.267495,3.23007299 189.872621,3.00233577 190.622369,3.00233577 C191.372117,3.00233577 191.973437,3.23007299 192.42633,3.68175182 C192.879223,4.13343066 193.107573,4.8280292 193.107573,5.76554745 L193.107573,6.53985401 L189.004893,6.53985401 L189.004893,6.92321168 Z M189.004893,5.7389781 L189.004893,5.87941606 L192.228427,5.87941606 L192.228427,5.64788321 C192.228427,4.96846715 192.087612,4.49021898 191.802175,4.21693431 C191.516738,3.93985401 191.124738,3.80321168 190.626175,3.80321168 C190.135223,3.80321168 189.743223,3.94744526 189.450175,4.23591241 C189.15332,4.52058394 189.004893,5.02160584 189.004893,5.7389781 Z" id="Shape"></path>
                </g>
            </g>
        </g>
    </g>
</svg>